<?xml version="1.0" encoding="utf-8"?>
<!-- Generator: Adobe Illustrator 20.1.0, SVG Export Plug-In . SVG Version: 6.00 Build 0)  -->
<svg version="1.1" id="Layer_1" xmlns="http://www.w3.org/2000/svg" xmlns:xlink="http://www.w3.org/1999/xlink" x="0px" y="0px"
	 viewBox="0 0 200 173.2" style="enable-background:new 0 0 200 173.2;" xml:space="preserve">
<style type="text/css">
	.st0{fill:#F9B047;}
	.st1{fill:#D46E13;}
	.st2{fill:#E48A04;}
	.st3{fill:none;}
	.st4{fill:#F1C40F;}
	.st5{fill:#FFFFFF;}
	.st6{fill:#2C3949;}
	.st7{clip-path:url(#SVGID_2_);fill:#47535F;}
</style>
<g>
	<polygon class="st0" points="50,173.2 0,86.6 50,0 150,0 200,86.6 150,173.2 	"/>
	<polygon class="st1" points="54.7,164.6 9.7,86.6 54.7,8.7 144.7,8.7 189.7,86.6 144.7,164.6 	"/>
	<polygon class="st2" points="144.7,8.7 54.7,8.7 9.7,86.6 54.7,164.6 	"/>
	<polygon class="st3" points="54.7,164.6 9.7,86.6 54.7,8.7 144.7,8.7 189.7,86.6 144.7,164.6 	"/>
</g>
<g>
	<path class="st4" d="M71.1,66.8c0-16,12.9-28.9,28.9-28.9s28.9,12.9,28.9,28.9c0,4.2-0.9,8.2-2.5,11.8c-0.7,1.7-2.1,4.4-4.6,7.2
		c-5.1,5.7-9.8,18.2-9.8,26.6c0,5.4-5.9,4.9-5.9,4.9h-6h-0.1h-6c0,0-5.9,0.4-5.9-4.9c0-8.3-4.7-20.8-9.8-26.6
		c-2.5-2.8-3.9-5.5-4.6-7.2C72,75,71.1,71,71.1,66.8z"/>
	<path class="st5" d="M96.4,117.2l0-0.6c0-0.3-1.3-25.9-6.3-39c-1.9-0.8-3.8-1.8-6.1-3l-0.1,0c-0.7-0.5-1.6-1.7-1-2.9
		c0.4-0.7,1.2-1.1,2.2-1.1c1.1,0,2.7,0.4,3.6,1.8c0.8,1.2,1.5,2.6,2.2,4.4c3.2,1.3,6.1,1.9,9.6,1.9c2.8,0,6.1-0.9,8.9-2.1
		c0.6-1.8,1.3-3.2,2.1-4.2l0,0c0.1-0.1,2-2.4,4-1.5c1,0.4,1.5,1,1.7,1.6c0.1,0.8-0.5,1.5-0.7,1.7c-0.9,0.8-3.3,2.2-6.1,3.4
		c-4.1,12.2-5.6,38.8-5.7,39.1l0,0.6H97H96.4z M109,78.1c-2.8,1-5.8,1.8-8.4,1.8c-3.3,0-6.1-0.5-9-1.6c1.7,4.9,3.2,11.6,4.3,20.2
		c1.1,8.2,1.5,15.5,1.6,17.5h6.1C103.9,112,105.4,89.9,109,78.1z M85.2,71.8c-0.7,0-1.1,0.3-1.3,0.5c-0.3,0.5,0.5,1.2,0.6,1.3
		c1.8,1,3.3,1.8,4.8,2.4c-0.5-1.1-1.1-2.2-1.6-3c-0.6-0.9-1.7-1.3-2.4-1.3C85.3,71.8,85.3,71.8,85.2,71.8z M112.5,73.1
		c-0.5,0.7-1,1.7-1.5,2.9c2.2-1,4-2,4.7-2.7c0.2-0.2,0.4-0.4,0.3-0.6c0-0.2-0.4-0.5-0.9-0.7c-0.2-0.1-0.3-0.1-0.5-0.1
		C113.7,71.8,112.6,72.9,112.5,73.1z"/>
	<path class="st6" d="M92.9,114.5h14.1c2.1,0,3.8,1.7,3.8,3.8l-1.5,11.3c0,2.1-1.7,3.8-3.8,3.8h-1.4v0.4c0,0.8-0.7,1.5-1.5,1.5h-5.3
		c-0.8,0-1.5-0.7-1.5-1.5v-0.4h-1.4c-2.1,0-3.8-1.7-3.8-3.8l-1.5-11.3C89.2,116.2,90.9,114.5,92.9,114.5z"/>
	<g>
		<defs>
			<path id="SVGID_1_" d="M92.9,114.5h14.1c2.1,0,3.8,1.7,3.8,3.8l-1.5,11.3c0,2.1-1.7,3.8-3.8,3.8h-1.4v0.4c0,0.8-0.7,1.5-1.5,1.5
				h-5.3c-0.8,0-1.5-0.7-1.5-1.5v-0.4h-1.4c-2.1,0-3.8-1.7-3.8-3.8l-1.5-11.3C89.2,116.2,90.9,114.5,92.9,114.5z"/>
		</defs>
		<clipPath id="SVGID_2_">
			<use xlink:href="#SVGID_1_"  style="overflow:visible;"/>
		</clipPath>
		
			<rect x="85.9" y="119.2" transform="matrix(-1 -4.494461e-11 4.494461e-11 -1 200 240.0307)" class="st7" width="28.2" height="1.6"/>
		
			<rect x="85.9" y="122.8" transform="matrix(-1 -4.494461e-11 4.494461e-11 -1 200 247.2008)" class="st7" width="28.2" height="1.6"/>
		
			<rect x="85.9" y="126.4" transform="matrix(-1 -4.481583e-11 4.481583e-11 -1 200 254.3709)" class="st7" width="28.2" height="1.6"/>
	</g>
	<circle class="st5" cx="106" cy="44.2" r="2.2"/>
	<path class="st5" d="M109.1,46.4c0-1.2,1-2.2,2.2-2.2c0.4,0,0.8,0.1,1.1,0.3l0,0c10,5.1,12.5,16.5,13,19.4c0.1,0.2,0.1,0.4,0.1,0.7
		c0,1.2-1,2.2-2.2,2.2c-0.9,0-1.8-0.6-2.1-1.4l0,0c0,0,0,0,0,0c-0.1-0.2-0.1-0.5-0.1-0.8c-2.1-10.6-8.8-15-10.5-16
		C109.8,48.3,109.1,47.4,109.1,46.4z"/>
</g>
</svg>
