<?xml version="1.0" encoding="utf-8"?>
<!-- Generator: Adobe Illustrator 20.1.0, SVG Export Plug-In . SVG Version: 6.00 Build 0)  -->
<svg version="1.1" id="Layer_1" xmlns="http://www.w3.org/2000/svg" xmlns:xlink="http://www.w3.org/1999/xlink" x="0px" y="0px"
	 viewBox="0 0 200 173.2" style="enable-background:new 0 0 200 173.2;" xml:space="preserve">
<style type="text/css">
	.st0{fill:#53D5F4;}
	.st1{fill:#00A3C9;}
	.st2{fill:#0AB4E2;}
	.st3{fill:none;}
	.st4{fill:#073963;}
	.st5{fill:#FFFFFF;}
	.st6{fill:#004A7F;}
	.st7{fill:#878787;}
	.st8{fill:#3161AB;}
</style>
<title>hex-marketer</title>
<polygon class="st0" points="50,173.2 0,86.6 50,0 150,0 200,86.6 150,173.2 "/>
<polygon class="st1" points="54.7,164.6 9.7,86.6 54.7,8.6 144.7,8.6 189.7,86.6 144.7,164.6 "/>
<polygon class="st2" points="144.7,8.6 54.7,8.6 9.7,86.6 54.7,164.6 "/>
<polygon class="st3" points="54.7,164.6 9.7,86.6 54.7,8.6 144.7,8.6 189.7,86.6 144.7,164.6 "/>
<g id="Email_Designer">
	<rect x="53.1" y="71.8" class="st4" width="94.2" height="60.9"/>
	<path class="st5" d="M63.8,40.5h72.7c0.8,0,1.5,0.7,1.5,1.5v67.6c0,0.8-0.7,1.5-1.5,1.5H63.8c-0.8,0-1.5-0.7-1.5-1.5V42.1
		C62.3,41.2,63,40.5,63.8,40.5z"/>
	<polygon class="st6" points="97.5,103.9 147.3,132.7 147.3,71.8 	"/>
	<path class="st6" d="M138.1,48.2H62.3v-6.1c0-0.8,0.7-1.5,1.5-1.5h72.7c0.8,0,1.5,0.7,1.5,1.5L138.1,48.2z"/>
	<rect x="94.5" y="54" class="st7" width="37.3" height="2.2"/>
	<rect x="94.5" y="60.2" class="st7" width="37.3" height="2.2"/>
	<rect x="94.5" y="66.4" class="st7" width="37.3" height="2.2"/>
	<rect x="94.5" y="72.6" class="st7" width="37.3" height="2.2"/>
	<path class="st7" d="M79.3,62.1c-1.6,0-2.7,1.7-2.7,3.2c-0.1,0.9,0.6,1.8,1.5,1.9c0.1,0,0.1,0,0.2,0c1.5,0,2.6-1.8,2.6-3.2
		C81,63,80.3,62.2,79.3,62.1L79.3,62.1z"/>
	<path class="st7" d="M68.5,54v20.9h20.8V54H68.5z M82.5,67.3c1.2,0,2.5-1.6,2.5-3.9c0-3.4-2.6-5.3-5.8-5.3c-3.7,0-6.1,2.7-6.1,6.3
		c-0.1,3.3,2.4,6.1,5.7,6.3c0.2,0,0.4,0,0.6,0c1.7,0,3.4-0.6,4.6-1.7h1.8c-1.4,2.2-3.9,3.5-6.5,3.5c-4.4,0-8-3.5-8.1-7.9
		s3.5-8,7.9-8.1c3.9,0,7.4,2.6,7.4,6.5c0.1,3-2,5.7-5,6.2c-0.8,0.1-1.5-0.4-1.6-1.2l0,0l0,0c-0.5,0.8-1.4,1.3-2.3,1.2
		c-1.9-0.1-3.4-1.7-3.4-3.7c0-2.7,1.8-5.5,4.7-5.5c1.1-0.1,2.1,0.5,2.5,1.5l0.3-1.2h1.8l-1.3,5.5c-0.1,0.3-0.2,0.6-0.2,0.9
		C82.2,67.1,82.3,67.3,82.5,67.3L82.5,67.3z"/>
	<polygon class="st8" points="53.1,71.8 53.1,132.7 147.3,132.7 	"/>
</g>
</svg>
