<svg id="Layer_1" data-name="Layer 1" xmlns="http://www.w3.org/2000/svg" viewBox="0 0 200 173.21"><defs><style>.cls-1{fill:#6f65a8;}.cls-2{fill:#40205f;}.cls-3{fill:#58266f;}.cls-4{fill:none;opacity:0.25;}.cls-5{fill:#fff;}</style></defs><title>hex-work</title><polygon class="cls-1" points="50 173.21 0 86.6 50 0 150 0 200 86.6 150 173.21 50 173.21"/><polygon class="cls-2" points="54.68 164.55 9.67 86.6 54.68 8.65 144.69 8.65 189.69 86.6 144.69 164.55 54.68 164.55"/><polygon class="cls-3" points="144.69 8.65 54.68 8.65 9.67 86.6 54.68 164.55 144.69 8.65"/><polygon class="cls-4" points="54.68 164.55 9.67 86.6 54.68 8.65 144.69 8.65 189.69 86.6 144.69 164.55 54.68 164.55"/><rect class="cls-5" x="65.59" y="43.82" width="68.81" height="85.57"/><rect class="cls-3" x="65.59" y="37.94" width="68.81" height="5.88"/><polygon class="cls-1" points="119.47 52.63 115.73 46.16 115.66 46.05 115.73 45.93 119.47 39.45 119.53 39.34 119.66 39.34 127.14 39.34 127.27 39.34 127.33 39.45 131.07 45.93 131.14 46.05 131.07 46.16 127.33 52.63 127.27 52.75 127.14 52.75 119.66 52.75 119.53 52.75 119.47 52.63"/><path class="cls-5" d="M127.4,53h-8l-4-6.92,4-6.92h8l4,6.92Zm-7.74-.45h7.48L130.88,46l-3.74-6.48h-7.48L115.92,46l3.74,6.48h0Z" transform="translate(0 0)"/><polygon class="cls-2" points="120.01 51.88 116.64 46.05 120.01 40.21 126.74 40.21 130.11 46.05 126.74 51.88 120.01 51.88"/><polygon class="cls-3" points="126.74 40.21 120.01 40.21 116.64 46.05 120.01 51.88 126.74 40.21"/><path class="cls-5" d="M120.92,43v6.08h1.81V44.75h.61q1.55,0,1.55,1.24a1.15,1.15,0,0,1-.85,1.23l.83,1.65a2.76,2.76,0,0,0,1-.62,3,3,0,0,0,.89-2.25,2.78,2.78,0,0,0-1-2.28,3.78,3.78,0,0,0-2.43-.7Z" transform="translate(0 0)"/><rect class="cls-3" x="65.59" y="129.39" width="68.81" height="5.88"/><path class="cls-3" d="M100.55,94.7a59.37,59.37,0,0,1-15.42-2C83,92,83,92.06,83.06,89.9a12.57,12.57,0,0,1,.35-2.32,3.07,3.07,0,0,1,2.48-2.44c2.65-.63,5.28-1.36,7.92-2,.68-.17.89-.49,1-1.21.26-1.86-.66-3.32-1.4-4.85-.45-.92-.65-1.92-1.78-2.5s-1.82-3.79-1.3-5c.06-.13.14-.33.25-.36,1.27-.28.86-1.22.83-2a40.33,40.33,0,0,1-.11-4.47,6,6,0,0,1,3.9-5.21c3.94-1.73,7.8-1.89,11.39,1,.51.41,1.25.52,1.76.93a5.49,5.49,0,0,1,2,5.41c-.11.81-.15,1.64-.18,2.46a1.79,1.79,0,0,0,.79,1.94c1.12.76.55,2.15.23,3.23s-.51,2.06-1.76,2.39a1.37,1.37,0,0,0-.8.52,25.23,25.23,0,0,0-2,4,9,9,0,0,0-.18,3.19c0,.19.63.42,1,.52,2.71.71,5.42,1.41,8.14,2.07A3.05,3.05,0,0,1,118,87.63c.22,1.05.31,2.14.47,3.21a1.13,1.13,0,0,1-1,1.45c-2.4.56-4.76,1.33-7.19,1.66C107.05,94.37,103.79,94.47,100.55,94.7Z" transform="translate(0 0)"/><path class="cls-3" d="M100.94,104.11H83.64a5.76,5.76,0,0,1-.67,0,1.86,1.86,0,0,1-1.68-1.68,1.83,1.83,0,0,1,1.64-1.71,16.72,16.72,0,0,1,1.8,0h33.92a1.87,1.87,0,0,1,2,1.69,1.85,1.85,0,0,1-2,1.73c-1.83,0-3.67,0-5.5,0H100.94Z" transform="translate(0 0)"/><path class="cls-3" d="M101,113.1H83.46c-.9,0-1.73-.21-2-1.13a2.1,2.1,0,0,1,.35-1.69,2.56,2.56,0,0,1,1.71-.59c6.89,0,13.78,0,20.67,0h13.93a4.91,4.91,0,0,1,.9,0,1.78,1.78,0,0,1,1.61,1.62,1.81,1.81,0,0,1-1.59,1.76,8.39,8.39,0,0,1-1.23,0H101Z" transform="translate(0 0)"/><path class="cls-3" d="M100.86,122.1H83.56c-1.35,0-2.23-.65-2.27-1.66s.87-1.76,2.28-1.76h34.82c1.36,0,2.25.66,2.27,1.66s-.89,1.77-2.29,1.77H100.86Z" transform="translate(0 0)"/></svg>