<?xml version="1.0" encoding="utf-8"?>
<!-- Generator: Adobe Illustrator 20.1.0, SVG Export Plug-In . SVG Version: 6.00 Build 0)  -->
<svg version="1.1" id="Layer_1" xmlns="http://www.w3.org/2000/svg" xmlns:xlink="http://www.w3.org/1999/xlink" x="0px" y="0px"
	 viewBox="0 0 200 173.2" style="enable-background:new 0 0 200 173.2;" xml:space="preserve">
<style type="text/css">
	.st0{fill:#D8DCE3;}
	.st1{fill:#717A8A;}
	.st2{fill:#837E8A;}
	.st3{fill:#4196D6;}
	.st4{clip-path:url(#SVGID_2_);fill:#65C156;}
</style>
<title>hex-marketer</title>
<polygon class="st0" points="50,173.2 0,86.6 50,0 150,0 200,86.6 150,173.2 "/>
<polygon class="st1" points="54.7,164.6 9.7,86.6 54.7,8.6 144.7,8.6 189.7,86.6 144.7,164.6 "/>
<polygon class="st2" points="144.7,8.6 54.7,8.6 9.7,86.6 54.7,164.6 "/>
<g>
	<circle class="st3" cx="100" cy="86.6" r="50.6"/>
	<g>
		<defs>
			<circle id="SVGID_1_" cx="100" cy="86.6" r="50.6"/>
		</defs>
		<clipPath id="SVGID_2_">
			<use xlink:href="#SVGID_1_"  style="overflow:visible;"/>
		</clipPath>
		<polygon class="st4" points="124.8,113.8 124.8,109.9 129.2,105.8 129.2,109.7 		"/>
		<polygon class="st4" points="82.3,59.5 85.8,55.9 90.4,55.9 97.9,48.5 95.3,45.8 85.9,45.8 83.3,48.4 78.9,48.4 76.1,51.2 
			79.6,54.8 79.6,57.3 		"/>
		<polygon class="st4" points="69.9,52.7 72.8,49.8 75.7,49.8 78.5,47 75.1,47 73.7,48.3 68.3,48.3 67.2,49.5 		"/>
		<path class="st4" d="M54.3,77.5l2.8,2.8v-3.7l5.6-5.6h5.9l6.2-6.2l-4.1-4.1h-3.9l-3.1,3.1h-3.3l-2.9-2.9l4.4-4.4
			c0,0,4.5-0.2,4.7,0c0.2,0.2,2.9-2.9,2.9-2.9l-2-2l-2,2h-7.5l-10.6,24H54.3z"/>
		<path class="st4" d="M51.3,83.9l-2.8,2.4v4.4l6.5,6.5v8.1l5.8,5.8v13.4l4,4l4.9-4.9v-3c0,0,8.8-8.8,9-9c0.2-0.2,0-3.5,0-3.5
			l3.1-3.1c0,0,0.1-3.4,0-3.5c-0.1-0.1-2.9-2.9-2.9-2.9h-3.5l-4.1-4.1h-2.5l-4.1-4.1h-5.8l-3.5,3.5l-1.9-1.9v-3.7L51.3,86V83.9z"/>
		<path class="st4" d="M102.2,95.2H96L91,90.3v-7l6.1-6.1h6.9l2.8-2.8c0,0,3.5,3.9,3.9,3.9s7.2,0,7.2,0l2.8-2.8v-2.7l-2.2-2.2h-3
			l-2,2h-4.2l-2.8-2.8l-5.1,5.1h-3.3L97,74.1c0,0,0-3.3,0-3.4c0-0.1,4.8-4.8,4.8-4.8h3.2l1.7-1.7v-1.3l-2-2v-2.2l4.8-4.8h4.1
			l3.7,3.7h7.5l3.3-3.3h6.5l3.9-3.9l19.9,19.9l-7,7v7l-4.8,4.8l-8.6-8.6h-4.3l-1.5,1.5v1.8l-3.6,3.6v1.1l2,2v3.4l-6.1,6.1v6.9
			l-2.4,2.4v6.2l-4.9,4.9h-3.2l-4-4V111l-2.2-2.2v-8.2L102.2,95.2z"/>
	</g>
</g>
</svg>
