<svg id="Layer_1" data-name="Layer 1" xmlns="http://www.w3.org/2000/svg" viewBox="0 0 200 173.21"><defs><style>.cls-1{fill:#9cd4d4;}.cls-2{fill:#2ca1a7;}.cls-3{fill:#4ba9a9;}.cls-4{fill:none;opacity:0.25;}.cls-5{fill:#fcc94d;}.cls-6{fill:#f7e7b9;}.cls-7{fill:#434342;}.cls-8{fill:#d1161a;}.cls-9{fill:#9d9d9c;}</style></defs><title>hex-designer</title><polygon class="cls-1" points="50 173.21 0 86.6 50 0 150 0 200 86.6 150 173.21 50 173.21"/><polygon class="cls-2" points="54.68 164.55 9.67 86.6 54.68 8.65 144.69 8.65 189.69 86.61 144.69 164.55 54.68 164.55"/><polygon class="cls-3" points="144.69 8.65 54.68 8.65 9.67 86.6 54.68 164.55 144.69 8.65"/><polygon class="cls-4" points="54.68 164.55 9.67 86.6 54.68 8.65 144.69 8.65 189.69 86.61 144.69 164.55 54.68 164.55"/><rect class="cls-5" x="54.16" y="87.4" width="98.31" height="10.11" transform="translate(-28.17 123.04) rotate(-60.32)"/><polygon class="cls-6" points="69.08 139.14 74.58 119.26 83.37 124.27 69.08 139.14"/><path class="cls-7" d="M130.16,45.36a5.05,5.05,0,0,0-6.9,1.89l8.79,5A5.06,5.06,0,0,0,130.16,45.36Z" transform="translate(0 -13.4)"/><polygon class="cls-7" points="73.56 134.47 70.8 132.9 69.08 139.14 73.56 134.47"/><rect class="cls-8" x="122.31" y="52.12" width="2.23" height="10.11" transform="translate(12.64 122.7) rotate(-60.32)"/><path class="cls-7" d="M105.82,56.24h-1.3V45.89h-2.74v-4h0a2.3,2.3,0,0,0-4.6,0h0v4H94.4V144.2L99,155.14v2.35h.92v-2.35l4.6-10.93V57.57h1.3V85.25h1.57v-29Z" transform="translate(0 -13.4)"/><rect class="cls-8" x="94.4" y="42.39" width="10.11" height="2.23"/><path class="cls-6" d="M124.59,152.55a1.41,1.41,0,0,0,1.93.5l6.39-7a1.41,1.41,0,0,0,.5-1.93l-6.83-9.35-7.41,4.33Z" transform="translate(0 -13.4)"/><path class="cls-5" d="M91.28,92.94c15,25.59,27.17,41.95,29.58,40.54S115,113.43,100,87.84,70.94,42.64,68.53,44.05,76.31,67.35,91.28,92.94Z" transform="translate(0 -13.4)"/><polygon class="cls-9" points="117.53 107.6 111.61 111.06 119.17 125.7 126.58 121.37 117.53 107.6"/><path class="cls-8" d="M73.83,60.37c-.33-.7-.65-1.38-.95-2l6-3.5,1.31,1.82Z" transform="translate(0 -13.4)"/></svg>