<?xml version="1.0" encoding="utf-8"?>
<!-- Generator: Adobe Illustrator 20.1.0, SVG Export Plug-In . SVG Version: 6.00 Build 0)  -->
<svg version="1.1" id="Layer_1" xmlns="http://www.w3.org/2000/svg" xmlns:xlink="http://www.w3.org/1999/xlink" x="0px" y="0px"
	 viewBox="0 0 200 173.2" style="enable-background:new 0 0 200 173.2;" xml:space="preserve">
<style type="text/css">
	.st0{fill:#EC666C;}
	.st1{fill:#D1161A;}
	.st2{fill:#DB151C;}
	.st3{fill:none;}
	.st4{fill:#DADADA;}
	.st5{fill:#D20A11;}
	.st6{fill:#FFDF00;}
	.st7{fill:#95C11F;}
	.st8{fill:#FFFFFF;}
</style>
<title>hex-developer</title>
<polygon class="st0" points="50,173.2 0,86.6 50,0 150,0 200,86.6 150,173.2 "/>
<polygon class="st1" points="55,164.6 10,86.6 55,8.6 145,8.6 190,86.6 145,164.6 "/>
<polygon class="st2" points="145,8.6 55,8.6 10,86.6 55,164.6 "/>
<polygon class="st3" points="55,164.6 10,86.6 55,8.6 145,8.6 190,86.6 145,164.6 "/>
<g id="Front-End_Developer">
	<path class="st4" d="M150.5,123.6c0.1,1.7-1.1,3.1-2.7,3.2c0,0,0,0,0,0H52.2c-1.7-0.1-2.9-1.6-2.7-3.2c0,0,0,0,0,0v-69
		c-0.1-1.7,1.1-3.1,2.7-3.2c0,0,0,0,0,0h95.6c1.7,0.1,2.9,1.6,2.7,3.2c0,0,0,0,0,0L150.5,123.6z"/>
	<circle class="st5" cx="54.4" cy="56.2" r="2.3"/>
	<circle class="st6" cx="60" cy="56.2" r="2.3"/>
	<circle class="st7" cx="65.6" cy="56.2" r="2.3"/>
	<path class="st8" d="M147.9,56.2c0,1.2-1,2.3-2.3,2.3H72.4c-1.2,0-2.3-1-2.3-2.3l0,0l0,0c0-1.2,1-2.2,2.3-2.2h73.2
		C146.8,54,147.9,55,147.9,56.2L147.9,56.2z"/>
	<path class="st1" d="M147.9,121.3c0.1,1.5-1.1,2.8-2.6,2.9H54.7c-1.5-0.1-2.7-1.4-2.6-2.9V61.5h95.7V121.3z"/>
	<path class="st2" d="M78.3,124.2H54.7c-1.5-0.1-2.7-1.4-2.6-2.9V61.5h62.4C114.5,61.5,79.8,124.1,78.3,124.2z"/>
</g>
<g>
	<path class="st8" d="M82.3,106.9L60.9,93.7v-7.3l21.4-13.2v8.6l-14.9,8.1l14.9,8.4V106.9z"/>
	<path class="st8" d="M85,106.9l19.9-33.7h8.2l-19,33.7L85,106.9z"/>
	<path class="st8" d="M115.7,106.9v-8.5l14.9-8.4l-14.9-8.3v-8.5l21.4,13.2v7.3L115.7,106.9z"/>
</g>
</svg>
