<svg id="Layer_1" data-name="Layer 1" xmlns="http://www.w3.org/2000/svg" viewBox="0 0 200 173.21"><defs><style>.cls-1{fill:#3161ab;}.cls-2{fill:#073963;}.cls-3{fill:#004a7f;}.cls-4{fill:none;opacity:0.25;}.cls-5{fill:#fff;}</style></defs><title>hex-logo</title><polygon class="cls-1" points="50 173.21 0 86.6 50 0 150 0 200 86.6 150 173.21 50 173.21"/><polygon class="cls-2" points="55 164.55 9.99 86.6 55 8.65 145.01 8.65 190.01 86.6 145.01 164.55 55 164.55"/><polygon class="cls-3" points="145.01 8.65 55 8.65 9.99 86.6 55 164.55 145.01 8.65"/><polygon class="cls-4" points="55 164.55 9.99 86.6 55 8.65 145.01 8.65 190.01 86.6 145.01 164.55 55 164.55"/><path id="Logo" class="cls-5" d="M61.07,59.38v81.24H85.24V82.71h8.16q20.77,0,20.77,16.61,0,12.94-11.34,16.4l11,22A36.9,36.9,0,0,0,127,129.43q11.9-11.66,11.9-30.12Q138.93,80,125,68.78q-11.73-9.4-32.44-9.4Z" transform="translate(0 -13.4)"/></svg>