<?xml version="1.0" encoding="utf-8"?>
<!-- Generator: Adobe Illustrator 20.1.0, SVG Export Plug-In . SVG Version: 6.00 Build 0)  -->
<svg version="1.1" id="Layer_1" xmlns="http://www.w3.org/2000/svg" xmlns:xlink="http://www.w3.org/1999/xlink" x="0px" y="0px"
	 viewBox="0 0 50 50" style="enable-background:new 0 0 50 50;" xml:space="preserve">
<style type="text/css">
	.st0{fill:none;}
	.st1{fill:#FFFFFF;}
</style>
<rect class="st0" width="50" height="50"/>
<g>
	<path class="st1" d="M25,10.2c-7.7,0-14,6-14.6,13.6l7.9,3.3c0.7-0.5,1.5-0.7,2.3-0.7c0.1,0,0.2,0,0.2,0l3.5-5.1c0,0,0,0,0-0.1
		c0-3.1,2.5-5.6,5.5-5.6c3,0,5.5,2.5,5.5,5.6c0,3.1-2.5,5.6-5.5,5.6c0,0-0.1,0-0.1,0l-5,3.6c0,0.1,0,0.1,0,0.2
		c0,2.3-1.9,4.2-4.1,4.2c-2,0-3.7-1.4-4.1-3.4L10.9,29c1.7,6.2,7.4,10.8,14.1,10.8c8.1,0,14.7-6.6,14.7-14.8
		C39.6,16.8,33.1,10.2,25,10.2"/>
	<path class="st1" d="M19.6,32.7l-1.8-0.8c0.3,0.7,0.9,1.2,1.6,1.5c1.6,0.7,3.4-0.1,4.1-1.7c0.3-0.8,0.3-1.6,0-2.4
		c-0.3-0.8-0.9-1.4-1.7-1.7c-0.8-0.3-1.6-0.3-2.3,0l1.9,0.8c1.2,0.5,1.7,1.8,1.2,3C22.1,32.6,20.7,33.1,19.6,32.7"/>
	<path class="st1" d="M27.1,21.2c0-1.5,1.2-2.8,2.8-2.8c1.5,0,2.8,1.2,2.8,2.8c0,1.5-1.2,2.8-2.8,2.8C28.3,24,27.1,22.7,27.1,21.2
		 M33.5,21.2c0-2-1.7-3.7-3.7-3.7c-2,0-3.7,1.7-3.7,3.7c0,2,1.7,3.7,3.7,3.7C31.8,24.9,33.5,23.2,33.5,21.2"/>
</g>
</svg>
