<?xml version="1.0" encoding="utf-8"?>
<!-- Generator: Adobe Illustrator 20.1.0, SVG Export Plug-In . SVG Version: 6.00 Build 0)  -->
<svg version="1.1" id="Layer_1" xmlns="http://www.w3.org/2000/svg" xmlns:xlink="http://www.w3.org/1999/xlink" x="0px" y="0px"
	 viewBox="0 0 50 50" style="enable-background:new 0 0 50 50;" xml:space="preserve">
<style type="text/css">
	.st0{fill:none;}
	.st1{fill:#FFFFFF;}
</style>
<rect class="st0" width="50" height="50"/>
<path class="st1" d="M19.1,35.3h-4.8V20h4.8V35.3z M16.6,18L16.6,18c-1.8,0-2.9-1.2-2.9-2.6c0-1.5,1.2-2.7,2.9-2.7
	c1.8,0,2.8,1.1,2.9,2.7C19.5,16.9,18.4,18,16.6,18z M38.3,35.3h-5.4v-7.9c0-2.1-0.8-3.5-2.7-3.5c-1.4,0-2.2,1-2.6,1.9
	c-0.1,0.3-0.1,0.8-0.1,1.2v8.3h-5.4c0,0,0.1-14,0-15.3h5.4v2.4c0.3-1,2-2.5,4.8-2.5c3.4,0,6.1,2.2,6.1,6.9L38.3,35.3L38.3,35.3z"/>
</svg>
