<?xml version="1.0" encoding="utf-8"?>
<!-- Generator: Adobe Illustrator 21.0.2, SVG Export Plug-In . SVG Version: 6.00 Build 0)  -->
<svg version="1.1" id="Layer_1" xmlns="http://www.w3.org/2000/svg" xmlns:xlink="http://www.w3.org/1999/xlink" x="0px" y="0px"
	 viewBox="0 0 100 50" style="enable-background:new 0 0 100 50;" xml:space="preserve">
<style type="text/css">
	.st0{fill:#FFFFFF;}
	.st1{fill:none;}
</style>
<path class="st0" d="M47.8,12.7c0.9,1.4,1.4,2.9,1.4,4.6c0,1.9-0.5,3.4-1.4,4.5c-0.5,0.7-1.4,1.2-2.4,1.7c1.5,0.5,2.8,1.5,3.6,2.8
	s1.2,2.8,1.2,4.5c0,1.9-0.5,3.4-1.4,5c-0.5,1-1.4,1.7-2.2,2.4c-1,0.7-2.1,1.2-3.4,1.5s-2.8,0.3-4.3,0.3H24.9v-31h15
	C43.5,9.4,46.3,10.6,47.8,12.7z M31,14.8v6.9h7.6c1.4,0,2.4-0.2,3.3-0.7c0.9-0.5,1.2-1.4,1.2-2.8c0-1.4-0.5-2.4-1.7-2.9
	c-1-0.3-2.2-0.5-3.6-0.5H31z M31,26.6v8.3h7.6c1.4,0,2.4-0.2,3.1-0.5c1.4-0.7,2.1-1.9,2.1-3.8c0-1.5-0.7-2.8-1.9-3.3
	c-0.7-0.3-1.7-0.5-3.1-0.5H31V26.6z M69,17.9c1.5,0.7,2.9,1.9,4,3.4c0.9,1.4,1.5,2.9,1.9,4.6c0.2,1,0.2,2.6,0.2,4.5H58.4
	c0.2,2.2,0.9,4,2.4,4.8c0.9,0.5,2.1,0.9,3.3,0.9c1.4,0,2.4-0.3,3.3-1c0.5-0.3,0.9-0.9,1.2-1.5h6c-0.2,1.4-0.9,2.8-2.2,4.1
	c-2.1,2.2-5,3.3-8.6,3.3c-3.1,0-5.7-0.9-8.1-2.8s-3.4-5-3.4-9.1c0-4,1-7.1,3.1-9.1c2.1-2.1,4.8-3.1,8.3-3.1
	C65.6,16.8,67.3,17.2,69,17.9z M60.1,23c-0.9,0.9-1.4,2.1-1.5,3.6h10.3c-0.2-1.5-0.7-2.8-1.5-3.6c-1-0.9-2.1-1.2-3.6-1.2
	C62,21.8,60.9,22.2,60.1,23z M70.1,10.8H56.8v3.8h13.3V10.8z"/>
<rect x="-0.1" class="st1" width="100.1" height="50"/>
</svg>
