<?xml version="1.0" encoding="utf-8"?>
<!-- Generator: Adobe Illustrator 21.0.2, SVG Export Plug-In . SVG Version: 6.00 Build 0)  -->
<svg version="1.1" id="Layer_1" xmlns="http://www.w3.org/2000/svg" xmlns:xlink="http://www.w3.org/1999/xlink" x="0px" y="0px"
	 viewBox="0 0 50 50" style="enable-background:new 0 0 50 50;" xml:space="preserve">
<style type="text/css">
	.st0{fill:none;}
	.st1{fill:#FFFFFF;}
</style>
<rect class="st0" width="50" height="50"/>
<path class="st1" d="M23.6,17.4c0.5,0.9,0.9,1.8,0.9,2.9c0,1.2-0.3,2.1-0.9,2.8c-0.3,0.4-0.9,0.8-1.5,1c1,0.3,1.7,1,2.3,1.7
	c0.5,0.8,0.8,1.7,0.8,2.8c0,1.2-0.3,2.1-0.9,3.1c-0.3,0.6-0.9,1-1.4,1.5c-0.6,0.4-1.3,0.8-2.1,1c-0.8,0.2-1.7,0.2-2.7,0.2H9.4V15.2
	h9.3C21,15.3,22.8,16.1,23.6,17.4z M13.3,18.6v4.3H18c0.9,0,1.5-0.1,2-0.4c0.5-0.3,0.8-0.9,0.8-1.7s-0.3-1.5-1-1.8
	c-0.6-0.2-1.4-0.3-2.3-0.3C17.5,18.6,13.3,18.6,13.3,18.6z M13.3,25.9v5.1H18c0.9,0,1.5-0.1,1.9-0.3c0.9-0.4,1.3-1.2,1.3-2.4
	c0-1-0.4-1.7-1.2-2c-0.4-0.2-1-0.3-1.9-0.3L13.3,25.9L13.3,25.9z M36.8,20.6c1,0.4,1.8,1.2,2.4,2.1c0.5,0.9,1,1.8,1.2,2.9
	c0.1,0.6,0.1,1.6,0.1,2.8H30.3c0.1,1.4,0.5,2.4,1.5,3c0.5,0.3,1.3,0.5,2,0.5c0.9,0,1.5-0.2,2-0.6c0.3-0.2,0.5-0.5,0.8-1h3.8
	c-0.1,0.9-0.5,1.7-1.4,2.5c-1.3,1.4-3.1,2-5.3,2c-1.9,0-3.6-0.5-5.1-1.7c-1.5-1.2-2.1-3.1-2.1-5.7c0-2.4,0.6-4.4,1.9-5.7
	c1.3-1.3,3-1.9,5.1-1.9C34.7,19.9,35.8,20.2,36.8,20.6z M31.3,23.7c-0.5,0.5-0.9,1.3-1,2.3h6.4c-0.1-1-0.4-1.7-1-2.3
	c-0.6-0.5-1.3-0.8-2.3-0.8C32.5,22.9,31.8,23.2,31.3,23.7z M37.5,16.1h-8.3v2.4h8.3V16.1z"/>
</svg>
