<?xml version="1.0" encoding="utf-8"?>
<!-- Generator: Adobe Illustrator 21.0.2, SVG Export Plug-In . SVG Version: 6.00 Build 0)  -->
<svg version="1.1" id="Layer_1" xmlns="http://www.w3.org/2000/svg" xmlns:xlink="http://www.w3.org/1999/xlink" x="0px" y="0px"
	 viewBox="0 0 50 50" style="enable-background:new 0 0 50 50;" xml:space="preserve">
<style type="text/css">
	.st0{fill:none;}
	.st1{fill:#FFFFFF;}
</style>
<rect class="st0" width="50" height="50"/>
<path class="st1" d="M25,37.5c-6.9,0-12.5-5.6-12.5-12.5S18.1,12.5,25,12.5S37.5,18.1,37.5,25S31.9,37.5,25,37.5z M19,33.4
	c1.8,1.2,3.9,2,6,2c1.1,0,2.2-0.2,3.3-0.5c-0.2-2.6-0.7-5.1-1.5-7.5C23.5,28.4,20.8,30.5,19,33.4z M28.8,26.8
	c0.7,2.3,1.2,4.7,1.5,7.2c2.6-1.5,4.4-4.1,5-6.9c-1.2-0.3-2.5-0.5-3.7-0.5C30.6,26.6,29.7,26.7,28.8,26.8z M14.6,25.5
	c0.1,2.5,1.1,4.8,2.7,6.6c2.1-3.1,5.1-5.5,8.7-6.7c-0.2-0.5-0.4-1-0.7-1.5c-3,1.1-6.2,1.7-9.4,1.7C15.6,25.6,15.2,25.5,14.6,25.5z
	 M31.5,24.4c1.3,0,2.6,0.2,4,0.5c0-2.1-0.7-4.1-1.8-5.8c-2,1.7-4.1,3-6.2,4c0.2,0.6,0.5,1.2,0.7,1.7C29.2,24.6,30.4,24.4,31.5,24.4z
	 M14.7,23.4c0.4,0,0.8,0.1,1.3,0.1c2.9,0,5.7-0.5,8.4-1.5c-1.2-2.2-2.6-4.3-4.3-6.3C17.3,17.3,15.2,20.1,14.7,23.4z M22.3,14.9
	c1.7,2,3.1,4.1,4.1,6.3c2.1-0.9,4-2.2,5.8-3.7c-2-1.9-4.5-3-7.3-3C24.1,14.6,23.2,14.7,22.3,14.9z"/>
</svg>
