<?xml version="1.0" encoding="utf-8"?>
<!-- Generator: Adobe Illustrator 20.1.0, SVG Export Plug-In . SVG Version: 6.00 Build 0)  -->
<svg version="1.1" id="Layer_1" xmlns="http://www.w3.org/2000/svg" xmlns:xlink="http://www.w3.org/1999/xlink" x="0px" y="0px"
	 viewBox="0 0 50 50" style="enable-background:new 0 0 50 50;" xml:space="preserve">
<style type="text/css">
	.st0{fill:none;}
	.st1{fill:#FFFFFF;}
</style>
<rect class="st0" width="50" height="50"/>
<g>
	<path class="st1" d="M16.7,12.6C16.5,12.6,16.5,12.6,16.7,12.6c0,0,0.1-0.1,0.3-0.1c2.4-1.5,5-2.4,8.1-2.4c2.8,0,5.4,0.8,7.7,2.1
		c0.1,0.1,0.6,0.4,0.8,0.7l0,0c-2.2-2.4-8.5,2.8-8.5,2.8c-2.2-1.7-4.2-2.8-5.7-3.2C17.9,12.1,17.1,12.3,16.7,12.6z M35.9,14.8
		c0-0.1-0.1-0.1-0.1-0.3c-0.6-0.6-1.3-0.7-1.8-0.7c-0.6,0.1-3.1,1.1-6.3,4c0,0,3.5,3.5,5.7,7S36.8,31.1,36,35
		c2.4-2.6,3.9-6.1,3.9-10C39.7,21.1,38.2,17.5,35.9,14.8z M30.4,26.4c-1-1.1-2.4-2.6-4.3-4.5c-0.4-0.4-0.8-0.8-1.3-1.3
		c0,0-0.7,0.7-1.5,1.5l0,0c-1.3,1.3-2.6,2.8-3.5,3.6c-1.5,1.5-5.7,6.5-5.8,9.2c0,0-1-2.2,1.1-7.2c1.4-3.3,5.4-8.2,7.1-9.9
		c0,0-1.5-1.7-3.5-2.9l0,0l0,0c-1-0.6-1.9-1-2.9-1c-1,0.1-1.7,0.8-1.7,0.8c-2.5,2.6-4,6.3-4,10.2c0,8.2,6.7,14.9,14.9,14.9
		c4.3,0,8.3-1.9,11-4.9c0,0-0.3-1.9-2.4-4.7C33.1,29.6,31.4,27.5,30.4,26.4z"/>
</g>
</svg>
