<?xml version="1.0" encoding="utf-8"?>
<!-- Generator: Adobe Illustrator 15.0.2, SVG Export Plug-In . SVG Version: 6.00 Build 0)  -->
<!DOCTYPE svg PUBLIC "-//W3C//DTD SVG 1.1//EN" "http://www.w3.org/Graphics/SVG/1.1/DTD/svg11.dtd">
<svg version="1.1" id="Layer_1" xmlns="http://www.w3.org/2000/svg" xmlns:xlink="http://www.w3.org/1999/xlink" x="0px" y="0px"
	 width="50px" height="50px" viewBox="0 0 50 50" enable-background="new 0 0 50 50" xml:space="preserve">
<path display="none" fill="#65CCEF" d="M25.008,0C11.196,0,0,11.197,0,25.008C0,38.82,11.196,50.016,25.008,50.016
	S50.016,38.82,50.016,25.008C50.016,11.197,38.82,0,25.008,0z M34.991,21.117c0.009,0.219,0.014,0.441,0.014,0.665
	c0,6.792-5.168,14.622-14.623,14.622c-2.902,0-5.604-0.852-7.878-2.308c0.401,0.048,0.812,0.071,1.226,0.071
	c2.408,0,4.624-0.822,6.383-2.201c-2.25-0.039-4.147-1.526-4.8-3.567c0.313,0.061,0.635,0.091,0.966,0.091
	c0.47,0,0.923-0.06,1.355-0.181c-2.353-0.471-4.124-2.548-4.124-5.039v-0.063c0.693,0.383,1.487,0.616,2.329,0.642
	c-1.379-0.923-2.287-2.497-2.287-4.278c0-0.942,0.253-1.824,0.696-2.586c2.536,3.112,6.322,5.156,10.593,5.37
	c-0.088-0.375-0.132-0.767-0.132-1.17c0-2.837,2.301-5.139,5.138-5.139c1.479,0,2.816,0.624,3.751,1.623
	c1.173-0.23,2.271-0.657,3.265-1.246c-0.382,1.2-1.197,2.206-2.259,2.842c1.039-0.124,2.03-0.401,2.951-0.809
	C36.868,19.487,35.995,20.392,34.991,21.117z"/>
<path fill="#FFFFFF" d="M25.008,0C11.196,0,0,11.197,0,25.008C0,38.82,11.196,50.016,25.008,50.016
	c13.811,0,25.008-11.195,25.008-25.008C50.016,11.197,38.818,0,25.008,0z M30.529,20.773l-0.287,3.741h-3.836v12.997H21.56V24.515
	h-2.585v-3.741h2.585V18.26c0-1.107,0.028-2.816,0.833-3.875c0.848-1.121,2.012-1.882,4.013-1.882c3.262,0,4.636,0.465,4.636,0.465
	l-0.646,3.831c0,0-1.078-0.312-2.083-0.312c-1.006,0-1.906,0.36-1.906,1.365v2.921H30.529z"/>
<path display="none" fill="#FFFFFF" d="M25.008,0C11.196,0,0,11.196,0,25.007s11.196,25.008,25.008,25.008
	c13.813,0,25.008-11.197,25.008-25.008S38.821,0,25.008,0z M18.009,35.467h-4.875v-15.6h4.875V35.467z M15.447,17.916h-0.035
	c-1.764,0-2.908-1.193-2.908-2.703c0-1.541,1.178-2.709,2.978-2.709c1.797,0,2.904,1.165,2.939,2.705
	C18.42,16.72,17.279,17.916,15.447,17.916z M37.512,35.467h-5.527v-8.072c0-2.113-0.864-3.555-2.766-3.555
	c-1.455,0-2.263,0.973-2.64,1.911c-0.141,0.336-0.119,0.805-0.119,1.275v8.44h-5.476c0,0,0.071-14.299,0-15.6h5.476v2.448
	c0.324-1.07,2.073-2.598,4.866-2.598c3.464,0,6.186,2.244,6.186,7.076V35.467z"/>
<path display="none" fill="#FFFFFF" d="M25.008,0C11.196,0,0,11.197,0,25.008s11.196,25.008,25.008,25.008
	c13.813,0,25.008-11.197,25.008-25.008S38.821,0,25.008,0z M38.698,16.272L25.002,27.863L11.45,16.272H38.698z M38.904,33.728
	H11.096v-15.66l13.901,11.891l13.907-11.771V33.728z"/>
</svg>
