<?xml version="1.0" encoding="utf-8"?>
<!-- Generator: Adobe Illustrator 20.1.0, SVG Export Plug-In . SVG Version: 6.00 Build 0)  -->
<svg version="1.1" id="Layer_1" xmlns="http://www.w3.org/2000/svg" xmlns:xlink="http://www.w3.org/1999/xlink" x="0px" y="0px"
	 viewBox="0 0 50 50" style="enable-background:new 0 0 50 50;" xml:space="preserve">
<style type="text/css">
	.st0{fill:none;}
	.st1{fill:#FFFFFF;}
</style>
<rect class="st0" width="50" height="50"/>
<path class="st1" d="M32.5,12.7h-15c-2.6,0-4.7,2.1-4.7,4.7v5v10c0,2.6,2.1,4.7,4.7,4.7h15c2.6,0,4.7-2.1,4.7-4.7v-10v-5
	C37.3,14.9,35.1,12.7,32.5,12.7z M33.9,15.6h0.5v0.5v3.6h-4.1v-4.2L33.9,15.6z M21.5,22.5c0.8-1.1,2.1-1.8,3.5-1.8s2.7,0.7,3.5,1.8
	c0.5,0.7,0.8,1.6,0.8,2.5c0,2.4-1.9,4.3-4.3,4.3s-4.3-1.9-4.3-4.3C20.7,24.1,21,23.2,21.5,22.5z M34.9,32.5c0,1.3-1.1,2.3-2.3,2.3
	h-15c-1.3,0-2.3-1.1-2.3-2.3v-10H19c-0.3,0.8-0.5,1.6-0.5,2.5c0,3.7,3,6.7,6.7,6.7s6.7-3,6.7-6.7c0-0.9-0.2-1.7-0.5-2.5h3.7v10H34.9
	z"/>
</svg>
