<?xml version="1.0" encoding="utf-8"?>
<!-- Generator: Adobe Illustrator 20.1.0, SVG Export Plug-In . SVG Version: 6.00 Build 0)  -->
<svg version="1.1" id="Layer_1" xmlns="http://www.w3.org/2000/svg" xmlns:xlink="http://www.w3.org/1999/xlink" x="0px" y="0px"
	 viewBox="0 0 50 50" style="enable-background:new 0 0 50 50;" xml:space="preserve">
<style type="text/css">
	.st0{fill:none;}
	.st1{fill:#FFFFFF;}
</style>
<rect class="st0" width="50" height="50"/>
<g>
	<path id="last.fm" class="st1" d="M34.3,34.2c-3.2,0-4.9-1.6-6.1-4.4L27.8,29l-2.9-6.8c-1-2.4-3.4-4-6.1-4c-3.7,0-6.7,3-6.7,6.7
		c0,3.7,3,6.7,6.7,6.7c2.6,0,4.8-1.5,5.9-3.6l1.2,2.8c-1.7,2.1-4.3,3.4-7.1,3.4c-5.1,0-9.2-4.2-9.2-9.3c0-5.1,4.1-9.3,9.2-9.3
		c3.8,0,6.9,2.1,8.5,5.7c0.1,0.3,1.7,3.9,3,7c0.8,1.9,1.5,3.2,3.9,3.3c2.3,0.1,3.8-1.3,3.8-3.1c0-1.7-1.2-2.1-3.2-2.8
		c-3.6-1.2-5.5-2.4-5.5-5.3c0-2.8,1.9-4.7,5-4.7c2,0,3.5,0.9,4.5,2.7l-2,1c-0.7-1-1.6-1.5-2.6-1.5c-1.4,0-2.5,1-2.5,2.4
		c0,1.9,1.7,2.2,4.1,3c3.2,1.1,4.7,2.3,4.7,5.2C40.5,31.9,37.8,34.2,34.3,34.2z"/>
</g>
</svg>
