<?xml version="1.0" encoding="utf-8"?>
<!-- Generator: Adobe Illustrator 21.0.2, SVG Export Plug-In . SVG Version: 6.00 Build 0)  -->
<svg version="1.1" id="Layer_1" xmlns="http://www.w3.org/2000/svg" xmlns:xlink="http://www.w3.org/1999/xlink" x="0px" y="0px"
	 viewBox="0 0 100 50" style="enable-background:new 0 0 100 50;" xml:space="preserve">
<style type="text/css">
	.st0{fill:none;}
	.st1{fill:#FFFFFF;}
</style>
<rect x="-0.1" class="st0" width="100.1" height="50"/>
<path class="st1" d="M35.4,6.8v36.3h29.2V6.8H35.4z M42.8,26.4c0-0.3,0.1-0.7,0.1-1c0.1-0.5,0.5-0.9,1.1-1c1.1-0.3,2.2-0.6,3.4-0.8
	c0.3-0.1,0.4-0.2,0.4-0.5c0.1-0.8-0.3-1.4-0.6-2.1c-0.2-0.4-0.3-0.8-0.8-1.1c-0.5-0.2-0.8-1.6-0.6-2.1c0-0.1,0.1-0.1,0.1-0.2
	c0.5-0.1,0.4-0.5,0.4-0.8c-0.1-0.6-0.1-1.3,0-1.9c0.1-1,0.7-1.9,1.7-2.2c1.7-0.7,3.3-0.8,4.8,0.4c0.2,0.2,0.5,0.2,0.7,0.4
	c0.7,0.5,1,1.4,0.8,2.3c0,0.3-0.1,0.7-0.1,1c-0.1,0.3,0.1,0.7,0.3,0.8c0.5,0.3,0.2,0.9,0.1,1.4c-0.1,0.5-0.2,0.9-0.7,1
	c-0.1,0-0.3,0.1-0.3,0.2c-0.3,0.5-0.6,1.1-0.8,1.7c-0.1,0.4-0.1,0.9-0.1,1.4c0,0.1,0.3,0.2,0.4,0.2c1.2,0.3,2.3,0.6,3.5,0.9
	c0.5,0.1,0.9,0.5,1,1c0.1,0.4,0.1,0.9,0.2,1.4c0.1,0.3-0.1,0.5-0.3,0.6c0,0-0.1,0-0.1,0c-1,0.2-2,0.6-3.1,0.7
	c-1.4,0.2-2.8,0.2-4.1,0.3c-2.2,0-4.4-0.3-6.5-0.8C42.8,27.3,42.8,27.3,42.8,26.4z M42.8,31c0.3,0,0.5,0,0.8,0h14.4
	c0.4,0,0.8,0.3,0.8,0.7c0,0.4-0.4,0.8-0.8,0.7c0,0,0,0,0,0c-0.8,0-1.6,0-2.3,0h-5.2v0h-7.3c-0.1,0-0.2,0-0.3,0
	c-0.4,0-0.7-0.3-0.7-0.7C42.1,31.3,42.4,31,42.8,31z M58.8,35.5c0,0.4-0.3,0.7-0.7,0.7c-0.2,0-0.3,0-0.5,0h-7.1v0H43
	c-0.4,0-0.7-0.1-0.8-0.5c-0.1-0.2,0-0.5,0.1-0.7c0.2-0.2,0.5-0.3,0.7-0.3c2.9,0,5.9,0,8.8,0h5.9c0.1,0,0.3,0,0.4,0
	C58.4,34.8,58.7,35.1,58.8,35.5z M57.8,40.1h-7.4v0H43c-0.6,0-0.9-0.3-1-0.7c0-0.4,0.4-0.7,1-0.7h14.8c0.6,0,1,0.3,1,0.7
	C58.8,39.8,58.4,40.1,57.8,40.1z"/>
</svg>
