<?xml version="1.0" encoding="utf-8"?>
<!-- Generator: Adobe Illustrator 20.1.0, SVG Export Plug-In . SVG Version: 6.00 Build 0)  -->
<svg version="1.1" id="Layer_1" xmlns="http://www.w3.org/2000/svg" xmlns:xlink="http://www.w3.org/1999/xlink" x="0px" y="0px"
	 viewBox="0 0 50 50" style="enable-background:new 0 0 50 50;" xml:space="preserve">
<style type="text/css">
	.st0{fill:none;}
	.st1{fill:#FFFFFF;}
</style>
<rect class="st0" width="50" height="50"/>
<path class="st1" d="M37.7,17.1c-0.9,0.4-1.9,0.7-3,0.8c1.1-0.6,1.9-1.7,2.3-2.9c-1,0.6-2.1,1-3.3,1.3c-0.9-1-2.3-1.6-3.8-1.6
	c-2.9,0-5.2,2.3-5.2,5.2c0,0.4,0,0.8,0.1,1.2c-4.3-0.2-8.2-2.3-10.7-5.4c-0.4,0.8-0.7,1.7-0.7,2.6c0,1.8,0.9,3.4,2.3,4.3
	c-0.9,0-1.7-0.3-2.4-0.7V22c0,2.5,1.8,4.6,4.2,5.1c-0.4,0.1-0.9,0.2-1.4,0.2c-0.3,0-0.7,0-1-0.1c0.7,2.1,2.6,3.6,4.9,3.6
	c-1.8,1.4-4,2.2-6.5,2.2c-0.4,0-0.8,0-1.2-0.1c2.3,1.5,5,2.3,8,2.3c9.6,0,14.8-7.9,14.8-14.8c0-0.2,0-0.5,0-0.7
	C36.1,19.1,37,18.2,37.7,17.1"/>
</svg>
