<?xml version="1.0" encoding="utf-8"?>
<!-- Generator: Adobe Illustrator 21.0.2, SVG Export Plug-In . SVG Version: 6.00 Build 0)  -->
<svg version="1.1" id="Layer_1" xmlns="http://www.w3.org/2000/svg" xmlns:xlink="http://www.w3.org/1999/xlink" x="0px" y="0px"
	 viewBox="0 0 100 50" style="enable-background:new 0 0 100 50;" xml:space="preserve">
<style type="text/css">
	.st0{fill:none;}
	.st1{fill:#FFFFFF;}
</style>
<rect x="-0.1" class="st0" width="100.1" height="50"/>
<g>
	<path id="XMLID_2_" class="st1" d="M60.2,7.9c5.9-0.1,6.9,5.1,6.9,8.9l-4.8,0.5c0-2.2-0.3-4.8-2-4.8c-1.3,0-1.7,1.4-1.7,3.3
		c0,2.3,2,4.8,3.9,7.6c2.3,3.4,4.6,6.7,4.6,10.3c0,4.5-1.5,8.4-6.8,8.4c-6.3,0-7.1-4.8-7.1-9.7l4.8-0.5c0,2.8,0.3,5.7,2.3,5.7
		c1.5,0,2-1.6,2-3.7c0-2.2-2.1-4.9-4-7.7c-2.3-3.4-4.5-6.8-4.5-10.4C53.7,12.1,55.5,8,60.2,7.9"/>
	<path id="XMLID_3_" class="st1" d="M40.9,7.9H37h0h-4v4.7h4v5.1h-4l0,4.7l3.9,0v5.1H33l0,4.7h4v5.1h-4v4.7h4h0h3.9
		c9.3,0,10-3.7,10-17.1C50.9,11.6,50.2,8,40.9,7.9 M42,37.1V12.9c3.5,0,3.8,0.9,3.7,12C45.7,36.2,45.5,37.1,42,37.1"/>
</g>
</svg>
