<svg width="111" height="30" viewBox="0 0 111 30" fill="none" xmlns="http://www.w3.org/2000/svg">
<g clip-path="url(#clip0_1534_311)">
<path fill-rule="evenodd" clip-rule="evenodd" d="M11.1971 9.15512C16.2603 9.15512 19.2021 13.0418 19.2021 18.4494V26.9384C19.2021 27.6529 18.9164 28.3381 18.4079 28.8432C17.8993 29.3484 17.2096 29.6323 16.4904 29.6323C15.7712 29.6323 15.0815 29.3484 14.5729 28.8432C14.0644 28.3381 13.7787 27.6529 13.7787 26.9384V18.7277C13.7787 16.1034 12.4679 14.0259 9.6661 14.0259C6.66421 14.0259 5.42343 16.3321 5.42343 18.7277V26.9384C5.42343 27.6529 5.13772 28.3381 4.62918 28.8432C4.12063 29.3484 3.4309 29.6323 2.71171 29.6323C1.99252 29.6323 1.30278 29.3484 0.79424 28.8432C0.285696 28.3381 0 27.6529 0 26.9384V2.70383C0 1.98938 0.285696 1.30419 0.79424 0.799001C1.30278 0.293808 1.99252 0.00999451 2.71171 0.00999451C3.4309 0.00999451 4.12063 0.293808 4.62918 0.799001C5.13772 1.30419 5.42343 1.98938 5.42343 2.70383V12.4553C5.97869 11.4128 6.82119 10.5489 7.85246 9.96446C8.88374 9.38005 10.0612 9.09933 11.2471 9.15512" fill="#0089D0"/>
<path fill-rule="evenodd" clip-rule="evenodd" d="M20.3128 12.0477C20.3128 11.3333 20.5985 10.6481 21.107 10.1429C21.6156 9.6377 22.3053 9.35388 23.0245 9.35388C23.7437 9.35388 24.4334 9.6377 24.942 10.1429C25.4505 10.6481 25.7362 11.3333 25.7362 12.0477V20.8748C25.7362 21.9688 26.1737 23.0181 26.9525 23.7917C27.7313 24.5654 28.7875 25 29.8888 25C30.9902 25 32.0464 24.5654 32.8252 23.7917C33.604 23.0181 34.0415 21.9688 34.0415 20.8748V12.0477C34.0415 11.3333 34.3272 10.6481 34.8357 10.1429C35.3442 9.6377 36.034 9.35388 36.7532 9.35388C37.4724 9.35388 38.1621 9.6377 38.6706 10.1429C39.1792 10.6481 39.4649 11.3333 39.4649 12.0477V20.4871C39.4649 23.0101 38.456 25.4297 36.6601 27.2137C34.8643 28.9977 32.4286 30 29.8888 30C27.3491 30 24.9134 28.9977 23.1176 27.2137C21.3217 25.4297 20.3128 23.0101 20.3128 20.4871V12.0477Z" fill="#0089D0"/>
<path fill-rule="evenodd" clip-rule="evenodd" d="M86.1844 2.70383C86.1844 2.35007 86.2545 1.99978 86.3908 1.67294C86.527 1.34611 86.7268 1.04915 86.9786 0.799001C87.2304 0.548855 87.5293 0.350429 87.8583 0.215051C88.1873 0.0796726 88.54 0.00999451 88.8961 0.00999451C89.2522 0.00999451 89.6048 0.0796726 89.9338 0.215051C90.2628 0.350429 90.5617 0.548855 90.8135 0.799001C91.0653 1.04915 91.2651 1.34611 91.4014 1.67294C91.5376 1.99978 91.6078 2.35007 91.6078 2.70383V26.9384C91.6078 27.2922 91.5376 27.6425 91.4014 27.9693C91.2651 28.2961 91.0653 28.5931 90.8135 28.8432C90.5617 29.0934 90.2628 29.2918 89.9338 29.4272C89.6048 29.5626 89.2522 29.6323 88.8961 29.6323C88.54 29.6323 88.1873 29.5626 87.8583 29.4272C87.5293 29.2918 87.2304 29.0934 86.9786 28.8432C86.7268 28.5931 86.527 28.2961 86.3908 27.9693C86.2545 27.6425 86.1844 27.2922 86.1844 26.9384V2.70383Z" fill="#0089D0"/>
<path fill-rule="evenodd" clip-rule="evenodd" d="M97.1313 17.4155C97.2208 16.3134 97.7368 15.2887 98.5709 14.5565C99.4049 13.8244 100.492 13.4418 101.604 13.4891C103.996 13.4891 105.447 15.338 105.847 17.4155H97.1313ZM111 19.493C111 13.5785 107.248 9.15507 101.604 9.15507C100.189 9.12713 98.7837 9.39599 97.4802 9.94409C96.1767 10.4922 95.0042 11.3072 94.0393 12.336V26.839C95.0325 27.8427 96.2276 28.6271 97.5466 29.141C98.8656 29.6548 100.279 29.8865 101.694 29.8211C104.024 29.8927 106.322 29.2658 108.288 28.0219C108.819 27.7718 109.277 27.3914 109.618 26.9165C109.96 26.4416 110.174 25.888 110.24 25.3081C110.241 25.0322 110.184 24.7591 110.073 24.5062C109.962 24.2533 109.799 24.0261 109.595 23.8391C109.39 23.6521 109.149 23.5094 108.886 23.42C108.624 23.3307 108.345 23.2966 108.068 23.3201C107.312 23.3678 106.6 23.6897 106.067 24.2246C104.87 25.119 103.402 25.5818 101.904 25.5368C101.299 25.5813 100.692 25.505 100.117 25.3124C99.5423 25.1199 99.0123 24.815 98.5581 24.4157C98.1039 24.0164 97.7348 23.5308 97.4726 22.9875C97.2104 22.4442 97.0603 21.8543 97.0312 21.2525H109.039C109.286 21.281 109.537 21.2564 109.774 21.1805C110.011 21.1045 110.229 20.9789 110.413 20.8121C110.597 20.6453 110.743 20.4413 110.841 20.2137C110.938 19.9862 110.986 19.7404 110.98 19.493" fill="#0089D0"/>
<path fill-rule="evenodd" clip-rule="evenodd" d="M46.1591 19.493C46.1591 16.332 47.9602 13.7575 51.0822 13.7575C54.2042 13.7575 55.9153 16.4712 55.9153 19.493C55.9153 22.5149 54.2042 25.2187 51.0822 25.2187C47.9602 25.2187 46.1591 22.6441 46.1591 19.493ZM58.627 0C57.9069 0.00263003 57.2171 0.288652 56.7089 0.795424C56.2006 1.3022 55.9153 1.98841 55.9153 2.70378V10.9344C54.2154 9.60139 52.0698 8.95843 49.9115 9.13519C43.9077 9.13519 40.7357 14.1054 40.7357 19.4732C40.7357 24.841 43.8977 29.8211 49.9115 29.8211H50.1616C50.1616 29.8211 54.0641 29.9304 56.1654 27.6441C56.2935 28.212 56.6137 28.7191 57.0726 29.0808C57.5314 29.4426 58.1012 29.6372 58.687 29.6322C59.0407 29.6353 59.3913 29.5667 59.7174 29.4306C60.0435 29.2945 60.3382 29.0938 60.5836 28.8408C60.8289 28.5877 61.0198 28.2876 61.1445 27.9588C61.2691 27.63 61.325 27.2794 61.3087 26.9284V2.70378C61.3087 1.99353 61.0275 1.31177 60.5257 0.80584C60.0239 0.299911 59.3419 0.0104448 58.627 0Z" fill="#0089D0"/>
<path fill-rule="evenodd" clip-rule="evenodd" d="M68.4132 19.493C68.4132 16.332 70.2243 13.7575 73.3363 13.7575C76.4482 13.7575 78.1793 16.4712 78.1793 19.493C78.1793 22.5149 76.4582 25.2187 73.3363 25.2187C70.2143 25.2187 68.4132 22.6441 68.4132 19.493ZM80.891 0C80.5341 -2.41411e-06 80.1806 0.070004 79.851 0.206003C79.5213 0.342002 79.222 0.541318 78.97 0.792517C78.7181 1.04372 78.5185 1.34186 78.3829 1.66984C78.2472 1.99782 78.178 2.34918 78.1793 2.70378V10.9344C76.4776 9.60495 74.3335 8.96242 72.1755 9.13519C66.1718 9.13519 62.9998 14.1054 62.9998 19.4732C62.9998 24.841 66.1517 29.8211 72.1655 29.8211H72.4157C72.4157 29.8211 76.3181 29.9304 78.4195 27.6441C78.5765 28.2638 78.9583 28.8042 79.4916 29.1615C80.0249 29.5189 80.6722 29.6682 81.3094 29.5807C81.9467 29.4933 82.529 29.1753 82.9448 28.6877C83.3606 28.2001 83.5807 27.5772 83.5627 26.9384V2.70378C83.5654 1.99444 83.2864 1.31267 82.7862 0.806464C82.286 0.300255 81.605 0.0104648 80.891 0Z" fill="#0089D0"/>
</g>
<defs>
<clipPath id="clip0_1534_311">
<rect width="111" height="30" fill="white"/>
</clipPath>
</defs>
</svg>
