<svg width="211" height="30" viewBox="0 0 211 30" fill="none" xmlns="http://www.w3.org/2000/svg">
<g clip-path="url(#clip0_1534_329)">
<path d="M205.143 10.53C204.717 10.5286 204.294 10.6123 203.9 10.776C203.506 10.9397 203.149 11.1803 202.848 11.4836C202.548 11.787 202.311 12.1472 202.151 12.5431C201.992 12.9391 201.912 13.3629 201.917 13.79H208.229C208.243 12.9504 207.927 12.1389 207.35 11.5295C206.773 10.9201 205.981 10.5613 205.143 10.53ZM201.917 15.53C201.917 17.45 202.966 19.16 205.223 19.16C205.882 19.2188 206.541 19.0465 207.088 18.6726C207.634 18.2987 208.034 17.7464 208.219 17.11H210.776C210.496 18.354 209.784 19.4582 208.767 20.2256C207.75 20.993 206.494 21.3738 205.223 21.3C201.378 21.3 199.231 18.61 199.231 14.84C199.231 11.34 201.508 8.35 205.153 8.35C209.028 8.35 211.395 11.84 210.946 15.53H201.917Z" fill="#DE0A21"/>
<path d="M194.257 14.86C194.257 12.15 192.959 10.53 190.862 10.53C188.325 10.53 187.426 12.79 187.426 15C187.426 17.21 188.475 19.21 190.822 19.21C193.169 19.21 194.257 17 194.257 14.86ZM196.864 4.05V21H194.307V19.35C193.926 20.0045 193.37 20.5388 192.7 20.8923C192.031 21.2459 191.277 21.4044 190.522 21.35C186.647 21.35 184.78 18.47 184.78 14.79C184.78 10.35 187.406 8.4 190.083 8.4C190.869 8.35435 191.655 8.50604 192.368 8.84132C193.081 9.17659 193.7 9.68485 194.167 10.32V4.05H196.864Z" fill="#DE0A21"/>
<path d="M176.87 19.21C179.287 19.21 180.355 17 180.355 14.86C180.355 12.72 179.287 10.53 176.87 10.53C174.453 10.53 173.414 12.74 173.414 14.86C173.414 16.98 174.483 19.21 176.9 19.21M183.092 14.86C183.092 18.64 180.835 21.35 176.9 21.35C172.965 21.35 170.718 18.64 170.718 14.86C170.718 11.08 172.965 8.4 176.9 8.4C180.835 8.4 183.092 11.11 183.092 14.86Z" fill="#DE0A21"/>
<path d="M163.517 8.4C166.364 8.4 168.78 9.83 169.05 12.84H166.344C166.268 12.165 165.932 11.5462 165.408 11.1148C164.884 10.6835 164.213 10.4737 163.537 10.53C162.129 10.53 160.172 11.28 160.172 15C160.172 17.05 161.07 19.21 163.417 19.21C164.173 19.2106 164.9 18.9185 165.445 18.3947C165.991 17.8709 166.313 17.1561 166.344 16.4H169.05C168.541 19.59 166.573 21.4 163.417 21.4C159.572 21.4 157.425 18.66 157.425 15.05C157.425 11.44 159.423 8.45 163.477 8.45" fill="#DE0A21"/>
<path d="M143.923 14.89C143.923 11.42 145.69 8.4 149.416 8.4C150.314 8.35309 151.205 8.58542 151.967 9.06517C152.728 9.54492 153.323 10.2486 153.67 11.08V4.08H155.168V21H153.84V18.68H153.78C153.38 19.4883 152.762 20.1685 151.996 20.6439C151.23 21.1192 150.347 21.3707 149.446 21.37C145.72 21.37 143.953 18.37 143.953 14.89M145.441 14.89C145.441 17.43 146.599 20.11 149.436 20.11C152.621 20.11 153.73 17.43 153.73 14.89C153.73 12.35 152.621 9.66 149.436 9.66C146.589 9.66 145.441 12.34 145.441 14.89Z" fill="#DE0A21"/>
<path d="M137.132 8.4C140.577 8.4 141.616 10.2 141.616 13.13V21H140.118V13.36C140.118 11.25 139.429 9.66 137.012 9.66C134.595 9.66 133.217 11.46 133.177 13.86V21H131.679V8.75H133.177V10.87C133.512 10.1168 134.063 9.48012 134.76 9.04047C135.457 8.60081 136.268 8.37793 137.092 8.4" fill="#DE0A21"/>
<path d="M122.95 20.11C125.217 20.11 127.234 18.66 127.214 16.26V14.26H127.165C126.985 14.62 126.316 14.74 125.916 14.81C123.379 15.26 120.224 15.23 120.224 17.63C120.237 17.9708 120.32 18.3054 120.465 18.6137C120.611 18.922 120.817 19.1978 121.072 19.4245C121.326 19.6513 121.624 19.8245 121.946 19.9336C122.269 20.0428 122.61 20.0858 122.95 20.06M122.83 21.32C120.573 21.32 118.726 20.2 118.726 17.73C118.726 14.29 122.061 14.17 125.297 13.79C126.535 13.64 127.214 13.48 127.214 12.13C127.214 10.13 125.766 9.61 124.009 9.61C122.251 9.61 120.783 10.46 120.743 12.46H119.245C119.385 9.58 121.402 8.35 124.238 8.35C126.396 8.35 128.742 9.02 128.742 12.29V18.8C128.725 18.9206 128.735 19.0437 128.772 19.1596C128.81 19.2756 128.874 19.3813 128.959 19.4685C129.044 19.5556 129.148 19.6219 129.263 19.6621C129.378 19.7022 129.501 19.7152 129.621 19.7C129.783 19.7011 129.943 19.6669 130.091 19.6V20.87C129.763 20.9403 129.427 20.9705 129.092 20.96C127.574 20.96 127.334 20.11 127.334 18.83C126.911 19.6333 126.264 20.2963 125.471 20.7383C124.679 21.1803 123.775 21.3824 122.87 21.32" fill="#DE0A21"/>
<path d="M117.487 18.89V21C116.898 21.05 116.319 21.14 115.729 21.14C112.913 21.14 112.384 20.05 112.334 18V10.75H110.336V8.75H112.334V5.05H115.04V8.73H117.487V10.73H115.04V17.29C115.04 18.41 115.13 18.97 116.349 18.97C116.731 18.9864 117.114 18.9528 117.487 18.87" fill="#DE0A21"/>
<path d="M104.304 8.4C106.961 8.4 108.649 9.83 108.649 12.58V21H105.942V13.29C105.882 11.37 105.133 10.53 103.545 10.53C103.131 10.5287 102.721 10.6135 102.341 10.779C101.96 10.9445 101.619 11.1872 101.337 11.4918C101.056 11.7963 100.84 12.156 100.705 12.5481C100.569 12.9403 100.516 13.3563 100.549 13.77V21H97.8527V8.73H100.409V10.53H100.459C100.85 9.86266 101.409 9.30993 102.08 8.92729C102.752 8.54465 103.512 8.34556 104.284 8.35" fill="#DE0A21"/>
<path d="M93.0988 13.79C93.0988 12.9519 92.7664 12.1482 92.1745 11.5555C91.5827 10.9629 90.7799 10.63 89.943 10.63C89.106 10.63 88.3032 10.9629 87.7114 11.5555C87.1196 12.1482 86.7871 12.9519 86.7871 13.79H93.0988ZM90.0129 8.4C93.8878 8.4 96.2547 11.89 95.8053 15.58H86.817C86.817 17.5 87.8157 19.21 90.1227 19.21C90.7827 19.2727 91.4437 19.102 91.991 18.7275C92.5384 18.3531 92.9374 17.7984 93.1188 17.16H95.6855C95.4059 18.404 94.6942 19.5082 93.6772 20.2756C92.6602 21.043 91.404 21.4238 90.1327 21.35C86.2877 21.35 84.1405 18.66 84.1405 14.89C84.1405 11.39 86.4275 8.4 90.0728 8.4" fill="#DE0A21"/>
<path d="M80.2956 17.31C80.2956 18.43 80.3954 18.99 81.5939 18.99C81.9761 19.0064 82.3588 18.9728 82.7324 18.89V21C82.1431 21.05 81.5739 21.14 80.9847 21.14C78.1583 21.14 77.629 20.05 77.5891 18V10.75H75.5917V8.75H77.5891V5.05H80.2956V8.73H82.7324V10.73H80.2956V17.31Z" fill="#DE0A21"/>
<path d="M69.5495 8.4C72.216 8.4 73.8838 9.83 73.8838 12.58V21H71.1873V13.29C71.1374 11.37 70.3784 10.53 68.7905 10.53C68.376 10.5287 67.9658 10.6135 67.5857 10.779C67.2057 10.9445 66.864 11.1872 66.5824 11.4918C66.3009 11.7963 66.0854 12.156 65.9498 12.5481C65.8141 12.9403 65.7612 13.3563 65.7944 13.77V21H63.1678V8.73H65.7245V10.53C66.1198 9.87057 66.6812 9.32672 67.3525 8.9529C68.0238 8.57908 68.7814 8.38841 69.5495 8.4Z" fill="#DE0A21"/>
<path d="M54.7188 19.21C57.1356 19.21 58.2043 17 58.2043 14.86C58.2043 12.72 57.1356 10.53 54.7188 10.53C52.3019 10.53 51.2233 12.74 51.2233 14.86C51.2233 16.98 52.3019 19.21 54.7188 19.21ZM60.9107 14.86C60.9107 18.64 58.6637 21.35 54.7188 21.35C50.7739 21.35 48.5768 18.64 48.5768 14.86C48.5768 11.08 50.8239 8.4 54.7687 8.4C58.7136 8.4 60.9607 11.11 60.9607 14.86" fill="#DE0A21"/>
<path d="M46.889 16.4C46.3896 19.59 44.4222 21.4 41.2663 21.4C37.4213 21.4 35.2741 18.66 35.2741 15.05C35.2741 11.44 37.2715 8.45 41.3262 8.45C44.1725 8.45 46.5894 9.88 46.849 12.89H44.1825C44.1093 12.2159 43.776 11.597 43.2536 11.1655C42.7312 10.734 42.0611 10.5239 41.3862 10.58C39.988 10.58 38.0105 11.33 38.0105 15.05C38.0105 17.1 38.9194 19.26 41.2663 19.26C42.0295 19.2602 42.7623 18.9608 43.3075 18.4261C43.8527 17.8914 44.1668 17.164 44.1825 16.4H46.889Z" fill="#DE0A21"/>
<path d="M29.961 15C29.961 17.9667 29.0824 20.8668 27.4363 23.3336C25.7903 25.8003 23.4506 27.7229 20.7133 28.8582C17.976 29.9935 14.9639 30.2906 12.058 29.7118C9.15203 29.133 6.48276 27.7044 4.3877 25.6066C2.29264 23.5088 0.865879 20.8361 0.287853 17.9264C-0.290174 15.0166 0.00649227 12.0006 1.14033 9.25975C2.27417 6.51886 4.19426 4.17618 6.65779 2.52796C9.12132 0.879735 12.0177 0 14.9805 0C16.9478 0 18.8958 0.387986 20.7133 1.14181C22.5308 1.89563 24.1823 3.00052 25.5733 4.3934C26.9644 5.78628 28.0679 7.43986 28.8207 9.25975C29.5735 11.0796 29.961 13.0302 29.961 15ZM23.829 12.55C23.8119 12.3338 23.7751 12.1195 23.7191 11.91C22.988 9.84806 21.5527 8.11112 19.6668 7.0059C17.7808 5.90067 15.5655 5.49825 13.4121 5.86969C11.2586 6.24114 9.30542 7.36255 7.89749 9.03591C6.48957 10.7093 5.71743 12.827 5.71743 15.015C5.71743 17.203 6.48957 19.3207 7.89749 20.9941C9.30542 22.6675 11.2586 23.7889 13.4121 24.1603C15.5655 24.5317 17.7808 24.1293 19.6668 23.0241C21.5527 21.9189 22.988 20.1819 23.7191 18.12C23.7824 17.9053 23.8192 17.6836 23.829 17.46C23.829 16.83 23.5793 16.31 23.2098 16.31C23.1086 16.3204 23.012 16.3573 22.9296 16.417C22.8472 16.4767 22.782 16.5571 22.7404 16.65C22.36 17.4455 21.7209 18.0879 20.9279 18.4719C20.1349 18.856 19.2352 18.9587 18.3762 18.7634C17.5172 18.5681 16.75 18.0863 16.2004 17.3971C15.6509 16.7078 15.3515 15.852 15.3515 14.97C15.3515 14.088 15.6509 13.2322 16.2004 12.5429C16.75 11.8537 17.5172 11.3719 18.3762 11.1766C19.2352 10.9813 20.1349 11.084 20.9279 11.4681C21.7209 11.8521 22.36 12.4945 22.7404 13.29C22.8603 13.5 23.04 13.68 23.2198 13.68C23.5893 13.68 23.839 13.16 23.839 12.53" fill="#DE0A21"/>
</g>
<defs>
<clipPath id="clip0_1534_329">
<rect width="211" height="30" fill="white"/>
</clipPath>
</defs>
</svg>
