<svg width="194" height="30" viewBox="0 0 194 30" fill="none" xmlns="http://www.w3.org/2000/svg">
<g clip-path="url(#clip0_1534_347)">
<path d="M19.1118 23.1908C17.1415 25.0658 15.1712 26.3487 12.1173 26.3487C7.38859 26.3487 3.84207 22.5 3.84207 17.4671C3.84207 12.4342 7.38859 8.68421 12.1173 8.68421C14.6787 8.68421 16.649 9.57237 18.9148 11.6447L19.4074 12.0395L22.0673 9.17763L21.5747 8.7829C19.5059 6.80921 16.846 4.93421 12.2158 4.93421C8.86631 4.93421 5.71384 6.21711 3.44801 8.58553C1.18217 10.9539 0 14.0132 0 17.4671C0 24.5724 5.22127 29.9013 12.1173 29.9013C16.9445 29.9013 19.7029 27.7303 21.7717 25.6579L22.1658 25.1645L19.6044 22.5987L19.1118 23.1908Z" fill="#009ADE"/>
<path d="M32.5098 10.954C27.19 10.954 23.0524 15.0987 23.0524 20.4276C23.0524 25.7566 27.19 29.9013 32.4113 29.9013C37.7311 29.9013 41.8687 25.7566 41.8687 20.4276C41.9672 15.0987 37.8296 10.954 32.5098 10.954ZM38.1251 20.5263C38.1251 23.8816 35.7608 26.4474 32.5098 26.4474C29.3573 26.4474 26.8945 23.7829 26.8945 20.4276C26.8945 16.9737 29.2588 14.5066 32.5098 14.5066C35.6623 14.5066 38.1251 17.1711 38.1251 20.5263Z" fill="#009ADE"/>
<path d="M52.9023 10.954C50.8335 10.954 49.0603 11.6447 47.6811 13.0263V11.25H43.9375V29.5066H47.6811V19.2434C47.6811 16.4803 49.5528 14.5066 52.1142 14.5066C54.6756 14.5066 56.1533 16.1842 56.1533 19.0461V29.6053H59.8969V18.454C59.9954 13.9145 57.237 10.954 52.9023 10.954Z" fill="#009ADE"/>
<path d="M76.0532 24.079C74.5755 25.6579 73.0978 26.4474 71.3245 26.4474C68.1721 26.4474 65.7092 23.7829 65.7092 20.4276C65.7092 17.0724 68.0735 14.4079 71.1275 14.4079C73.2948 14.4079 74.674 15.5921 75.8562 16.7763L76.3488 17.2697L78.9101 14.6053L78.5161 14.2105C77.1369 12.7303 74.9696 10.954 71.3245 10.954C68.7631 10.954 66.3988 11.9408 64.724 13.8158C63.0493 15.5921 62.0641 17.9605 62.0641 20.5263C62.0641 22.9934 63.0493 25.3618 64.724 27.1382C66.4973 28.9145 68.8617 29.9013 71.3245 29.9013C75.0681 29.9013 77.2354 28.0263 78.7131 26.4474L79.1072 25.954L76.6443 23.5855L76.0532 24.079Z" fill="#009ADE"/>
<path d="M84.821 11.3487H81.0775V29.6053H84.821V11.3487Z" fill="#009ADE"/>
<path d="M84.821 6.51316H81.0775V9.67105H84.821V6.51316Z" fill="#009ADE"/>
<path d="M91.2245 14.1118V11.3487H87.4809V29.6053H91.2245V22.2039C91.2245 17.7632 93.4903 15.0987 97.1353 15.0987H97.9234V11.1513H97.3324C94.968 10.9539 92.8992 12.0395 91.2245 14.1118Z" fill="#009ADE"/>
<path d="M103.736 14.1118V11.3487H99.9923V29.6053H103.736V22.2039C103.736 17.7632 106.002 15.0987 109.647 15.0987H110.435V11.1513H109.844C107.479 10.9539 105.411 12.0395 103.736 14.1118Z" fill="#009ADE"/>
<path d="M124.719 21.7105C124.719 24.4737 122.848 26.4474 120.286 26.4474C117.725 26.4474 116.247 24.7697 116.247 21.9079V11.3487H112.504V22.5C112.504 27.0395 115.262 29.9013 119.597 29.9013C121.665 29.9013 123.439 29.2105 124.818 27.8289V29.6053H128.562V11.3487H124.818V21.7105H124.719Z" fill="#009ADE"/>
<path d="M139.103 18.6513C137.034 18.0592 135.162 17.4671 135.162 16.2829V16.1842C135.162 15.0987 136.246 14.3092 137.822 14.3092C139.3 14.3092 140.974 14.9013 142.452 15.8882L142.945 16.2829L144.718 13.3224L144.324 13.0263C142.452 11.7434 140.088 11.0526 137.92 11.0526C134.177 11.0526 131.517 13.3224 131.517 16.5789V16.6776C131.517 20.3289 135.063 21.3158 137.526 22.1053C139.694 22.6974 141.27 23.2895 141.27 24.4737V24.5724C141.27 25.8553 140.088 26.6447 138.413 26.6447C136.64 26.6447 134.669 25.9539 132.896 24.5724L132.404 24.1776L130.433 26.9408L130.926 27.3355C132.896 28.9145 135.753 30 138.314 30C142.255 30 145.013 27.7303 145.013 24.2763V24.1776C144.915 20.4276 141.467 19.3421 139.103 18.6513Z" fill="#009ADE"/>
<path d="M191.414 13.8158C189.345 11.7434 186.291 10.7566 183.336 11.1513C183.434 10.6579 183.434 10.1645 183.434 9.57237C183.434 4.3421 179.198 0 173.878 0C168.657 0 164.322 4.24342 164.322 9.57237C164.322 10.0658 164.322 10.5592 164.421 11.1513C161.465 10.7566 158.51 11.7434 156.343 13.8158C154.569 15.5921 153.584 17.9605 153.584 20.5263C153.584 23.0921 154.569 25.4605 156.343 27.2368C159.988 30.8882 166.096 30.8882 169.741 27.2368L180.479 16.4803C182.745 14.2105 186.39 14.2105 188.655 16.4803C189.739 17.5658 190.33 19.0461 190.33 20.5263C190.33 22.1053 189.739 23.4868 188.655 24.5724C186.39 26.8421 182.745 26.8421 180.479 24.5724L178.607 22.6974L175.947 25.3618L177.819 27.2368C179.691 29.1118 182.055 30 184.518 30C186.981 30 189.345 29.1118 191.217 27.2368C192.99 25.4605 193.975 23.0921 193.975 20.5263C194.172 17.9605 193.187 15.5921 191.414 13.8158ZM168.066 9.57237C168.066 6.31579 170.726 3.65132 173.977 3.65132C177.228 3.65132 179.888 6.31579 179.888 9.57237C179.888 11.1513 179.296 12.5329 178.213 13.6184C178.114 13.7171 178.016 13.8158 177.917 13.9145L167.278 24.5724C165.012 26.8421 161.367 26.8421 159.101 24.5724C158.017 23.4868 157.426 22.0066 157.426 20.5263C157.426 18.9474 158.017 17.5658 159.101 16.4803C160.185 15.3947 161.662 14.8026 163.14 14.8026C164.618 14.8026 166.096 15.3947 167.179 16.4803L169.051 18.3553L171.711 15.6908L169.544 13.5197C168.657 12.4342 168.066 11.0526 168.066 9.57237Z" fill="#009ADE"/>
</g>
<defs>
<clipPath id="clip0_1534_347">
<rect width="194" height="30" fill="white"/>
</clipPath>
</defs>
</svg>
