<svg width="192" height="30" viewBox="0 0 192 30" fill="none" xmlns="http://www.w3.org/2000/svg">
<g clip-path="url(#clip0_1534_294)">
<path d="M22.5587 14C26.4348 14 29.577 10.866 29.577 7C29.577 3.134 26.4348 0 22.5587 0C18.6827 0 15.5405 3.134 15.5405 7C15.5405 10.866 18.6827 14 22.5587 14Z" fill="white"/>
<path d="M22.5587 30C26.4348 30 29.577 26.866 29.577 23C29.577 19.134 26.4348 16 22.5587 16C18.6827 16 15.5405 19.134 15.5405 23C15.5405 26.866 18.6827 30 22.5587 30Z" fill="white"/>
<path d="M7.0183 30C10.8943 30 14.0365 26.866 14.0365 23C14.0365 19.134 10.8943 16 7.0183 16C3.1422 16 0 19.134 0 23C0 26.866 3.1422 30 7.0183 30Z" fill="white"/>
<path d="M7.0183 14C10.8943 14 14.0365 10.866 14.0365 7C14.0365 3.134 10.8943 0 7.0183 0C3.1422 0 0 3.134 0 7C0 10.866 3.1422 14 7.0183 14Z" fill="#04D2FF"/>
<path fill-rule="evenodd" clip-rule="evenodd" d="M43.1123 1.5V28.5H48.5394V17.9711H54.3658C57.186 17.9711 59.44 17.2261 61.13 15.733C62.821 14.243 63.666 12.2743 63.666 9.755C63.666 7.2357 62.821 5.2311 61.13 3.738C59.44 2.245 57.186 1.5 54.3658 1.5H43.1123ZM53.8891 13.4597H48.5394V13.4567V6.0125H53.8891C55.2451 6.0125 56.3101 6.3416 57.081 6.9969C57.852 7.6521 58.239 8.5976 58.239 9.7555C58.239 10.9135 57.852 11.82 57.081 12.4753C56.3101 13.1305 55.2451 13.4597 53.8891 13.4597Z" fill="white"/>
<path d="M78.377 13.5788C77.645 13.2667 76.779 13.1091 75.776 13.1091C74.203 13.1091 72.897 13.7788 71.854 15.1213C70.81 16.4636 70.29 18.5151 70.29 21.2727V28.5H65.17V8.8121H70.29V12.4061C70.804 11.2879 71.652 10.3545 72.831 9.6121C74.011 8.8697 75.221 8.5 76.469 8.5C77.308 8.5 78.055 8.603 78.705 8.8121L78.38 13.5788H78.377Z" fill="white"/>
<path fill-rule="evenodd" clip-rule="evenodd" d="M89.734 28.5C92.804 28.5 95.325 27.5572 97.299 25.6715C99.274 23.7887 100.261 21.3957 100.261 18.4985C100.261 15.6013 99.274 13.2114 97.299 11.3256C95.322 9.4429 92.804 8.5 89.734 8.5C86.663 8.5 84.143 9.4399 82.168 11.3256C80.193 13.2084 79.206 15.6013 79.206 18.4985C79.206 21.3957 80.193 23.7857 82.168 25.6715C84.143 27.5572 86.663 28.5 89.734 28.5ZM89.734 24.3049C88.107 24.3049 86.791 23.7738 85.791 22.7086V22.7115C84.791 21.6463 84.291 20.244 84.291 18.4985C84.291 16.7529 84.791 15.3507 85.791 14.2854C86.791 13.2202 88.107 12.6891 89.734 12.6891C91.361 12.6891 92.677 13.2262 93.677 14.3033C94.676 15.3805 95.176 16.7769 95.176 18.4955C95.176 20.2142 94.676 21.6105 93.677 22.6877C92.677 23.7678 91.361 24.3049 89.734 24.3049Z" fill="white"/>
<path d="M119.311 28.5H113.799L109.806 22.6203L105.773 28.5H100.261L107.052 18.6345L100.459 9H105.893L109.806 14.6486L113.682 9H119.113L112.523 18.6345L119.311 28.5Z" fill="white"/>
<path d="M125.828 9H120.815V28.5H125.828V9Z" fill="white"/>
<path d="M129.838 28.497V8.8121H134.891V11.8207C136.173 9.6089 138.114 8.5 140.705 8.5C143.941 8.5 146.041 9.7362 147.003 12.2116C147.591 11.1451 148.474 10.2573 149.65 9.5544C150.826 8.8515 152.177 8.5 153.701 8.5C155.867 8.5 157.612 9.1181 158.934 10.3543C160.257 11.5905 160.919 13.1872 160.919 15.1383V28.497H155.867V16.5079C155.867 15.3111 155.546 14.3719 154.905 13.6961C154.264 13.0205 153.353 12.6812 152.177 12.6812C150.839 12.6812 149.79 13.2024 149.028 14.2447C148.266 15.2869 147.886 16.6927 147.886 18.4622V28.5H142.833V16.5079C142.833 15.3111 142.519 14.3719 141.891 13.6961C141.263 13.0205 140.373 12.6812 139.225 12.6812C137.862 12.6812 136.798 13.2085 136.035 14.2628C135.273 15.3172 134.894 16.7291 134.894 18.5016V28.5H129.841L129.838 28.497Z" fill="white"/>
<path d="M169.441 9H164.428V28.5H169.441V9Z" fill="white"/>
<path fill-rule="evenodd" clip-rule="evenodd" d="M191.919 19.7739C191.972 19.2607 192 18.6194 192 17.8496L191.997 17.8437C191.997 15.3825 191.11 13.2107 189.341 11.3252C187.573 9.4427 185.038 8.5 181.893 8.5C178.748 8.5 176.307 9.4875 174.563 11.4624C172.818 13.4373 171.948 15.8061 171.948 18.5C171.948 21.1939 172.858 23.5328 174.683 25.5197C176.505 27.5066 179.003 28.5 182.172 28.5C184.543 28.5 186.553 27.9869 188.205 26.9607C189.856 25.9343 190.959 24.5113 191.519 22.6915L186.807 21.4624C186.541 22.4111 186.009 23.1421 185.208 23.6551C184.409 24.1683 183.424 24.4249 182.253 24.4249C180.815 24.4249 179.632 24.0161 178.699 23.1957C177.767 22.3753 177.195 21.2357 176.982 19.7739H191.919ZM186.609 16.2357H177.103C177.369 14.926 177.921 13.9266 178.761 13.2345C179.601 12.5423 180.645 12.1963 181.897 12.1963C183.307 12.1963 184.413 12.5692 185.212 13.3121C186.011 14.0578 186.475 15.0305 186.609 16.2357Z" fill="white"/>
</g>
<defs>
<clipPath id="clip0_1534_294">
<rect width="192" height="30" fill="white"/>
</clipPath>
</defs>
</svg>
