<svg width="108" height="30" viewBox="0 0 108 30" fill="none" xmlns="http://www.w3.org/2000/svg">
<g clip-path="url(#clip0_1534_319)">
<path d="M26.89 9.77L27.01 9H27.2501L27.3801 9.77L28.6406 19.21H25.6395L26.89 9.77ZM24.4591 0L19.9274 30H24.199L25.0193 23.89H29.2508L30.0611 30H34.3327L29.811 0H24.4591Z" fill="#EE8400"/>
<path d="M33.8625 0V4.56H38.0141V29.95H42.4057V4.56H46.5572V0H33.8625Z" fill="#EE8400"/>
<path d="M53.0196 9.77L53.1397 9H53.3798L53.5098 9.77L54.7703 19.21H51.7692L53.0196 9.77ZM50.6087 0L46.0871 30H50.3586L51.179 23.89H55.4105L56.2208 30H60.4924L56.0207 0H50.6087Z" fill="#EE8400"/>
<path d="M68.2553 0.0599995C73.4572 -0.0600005 74.2575 4.56 74.2575 7.83L70.0159 8.23C70.0159 6.28 69.7358 4.01 68.2953 4.01C67.1749 4.01 66.8147 5.24 66.8147 6.92C66.8147 8.92 68.5354 11.14 70.216 13.57C72.2167 16.57 74.2175 19.48 74.2175 22.57C74.2175 26.48 72.937 29.95 68.2153 29.95C62.6532 29.95 61.9329 25.76 61.9329 21.42L66.1745 21.02C66.1745 23.45 66.4146 26.02 68.1752 26.02C69.4557 26.02 69.9359 24.63 69.9359 22.79C69.9359 20.95 68.0952 18.49 66.4546 16.02C64.4539 13.02 62.4531 10.02 62.4531 6.89C62.4531 3.76 64.0137 0.109999 68.0952 0.0299988" fill="white"/>
<path d="M81.14 0.0599976H76.7484V30H81.14V0.0599976Z" fill="white"/>
<path d="M83.601 0.0399933V30H88.0226L88.0126 16.93H92.0841V12.41H88.0126V4.55999H93.8247L93.8348 0.0399933H83.601Z" fill="white"/>
<path d="M95.8355 0.0599976L95.8455 4.59L99.4568 4.57L99.4468 30H103.858L103.848 4.57H108V0.0599976H95.8355Z" fill="white"/>
<path d="M9.58355 0.0600004H0V4.18H6.08225V8.65H0V12.78H6.08225V17.26H0V21.39H6.08225V25.86H0V30H9.54353C17.6765 30 18.2868 26.74 18.2868 15C18.2868 3.26 17.6765 0.06 9.54353 0M10.4739 25.53V4.45C13.575 4.45 13.7751 5.23 13.7351 15C13.6951 24.77 13.575 25.59 10.4739 25.59" fill="#EE8400"/>
</g>
<defs>
<clipPath id="clip0_1534_319">
<rect width="108" height="30" fill="white"/>
</clipPath>
</defs>
</svg>
