<svg id="Layer_1" data-name="Layer 1" xmlns="http://www.w3.org/2000/svg" viewBox="0 0 278 50"><defs><style>.cls-1{fill:none;}.cls-2{fill:#cba569;}</style></defs><title>story-logo-goldsmiths</title><rect class="cls-1" width="278" height="50"/><g id="g10"><g id="g380"><g id="g382"><g id="g388"><path id="path390" class="cls-2" d="M90.32,26.61A12.2,12.2,0,0,1,82.9,29a9.11,9.11,0,0,1-9.42-9.45c0-5,3.3-9.57,9.65-9.57a9.18,9.18,0,0,1,6.7,2.34L88,14.7a7.81,7.81,0,0,0-5-1.76c-3.81,0-6.25,2.94-6.25,6.58,0,4.49,3,6.66,6.17,6.66A7.53,7.53,0,0,0,87.29,25V21.55H82.75V18.84h7.57Z"/></g><g id="g392"><path id="path394" class="cls-2" d="M103.47,22.06v0a4.1,4.1,0,0,0-4.11-4.27,4,4,0,0,0-4,4.22V22a4.09,4.09,0,0,0,4.09,4.24,4,4,0,0,0,4.06-4.19m3.07,0a6.94,6.94,0,0,1-7.18,6.91,6.87,6.87,0,0,1-7.11-6.86v0A7.15,7.15,0,0,1,106.54,22Z"/></g><path id="path396" class="cls-2" d="M111.55,28.72h-3.08V10.18h3.08Z"/><g id="g398"><path id="path400" class="cls-2" d="M124.47,22a4,4,0,0,0-4-4.27A3.92,3.92,0,0,0,116.58,22a4,4,0,0,0,4,4.29c2.43,0,3.91-1.75,3.91-4.27m3,6.71h-2.92V26.94A5.41,5.41,0,0,1,120.11,29c-3.53,0-6.63-2.52-6.63-7V22c0-3.25,1.93-6.93,6.75-6.93a5.12,5.12,0,0,1,4.19,1.8V10.18h3.07Z"/></g><g id="g402"><path id="path404" class="cls-2" d="M139.84,24.83c0,2.69-2.19,4.14-5,4.14a9.35,9.35,0,0,1-5.64-1.73l1.32-2.18a7.78,7.78,0,0,0,4.32,1.42c1.27,0,1.85-.56,1.85-1.47s-1.16-1.3-2.74-1.88c-2.08-.77-4.14-1.45-4.14-3.94v-.05c0-2.54,2.16-4.11,4.83-4.11a9.16,9.16,0,0,1,5,1.4l-1.17,2.25a7.64,7.64,0,0,0-3.66-1.16c-1.16,0-1.88.48-1.88,1.34,0,1.12,1.83,1.55,2.82,1.91,2,.71,4.12,1.55,4.12,4.06"/></g><path id="path406" class="cls-2" d="M167.85,13.92h-3.07V11h3.07Z"/><path id="path408" class="cls-2" d="M167.85,28.72h-3.07V15.31h3.07Z"/><g id="g410"><path id="path412" class="cls-2" d="M179.15,28a6.13,6.13,0,0,1-3.4.91c-2.67,0-4.17-1.29-4.17-4.19v-7h-2V15.31h2V10.94h3v4.37h3.86v2.44h-3.86v6.5a2.05,2.05,0,0,0,.45,1.6,1.72,1.72,0,0,0,1.27.46,4.42,4.42,0,0,0,1.86-.43Z"/></g><g id="g414"><path id="path416" class="cls-2" d="M192.41,28.72h-3.08V21.59c0-2.21-.38-3.81-2.61-3.81-2.67,0-2.87,2.47-2.87,4.19v6.75h-3.07V10.18h3.07v6.51A4.4,4.4,0,0,1,187.41,15a4.93,4.93,0,0,1,3.7,1.32c1.32,1.32,1.3,3.46,1.3,4.25Z"/></g><g id="g418"><path id="path420" class="cls-2" d="M204.52,24.84c0,2.69-2.18,4.14-5,4.14a9.27,9.27,0,0,1-5.63-1.73l1.32-2.19a7.67,7.67,0,0,0,4.31,1.43c1.27,0,1.86-.56,1.86-1.48s-1.17-1.29-2.75-1.87c-2.08-.77-4.13-1.45-4.13-3.94v-.05c0-2.54,2.15-4.12,4.82-4.12a9.23,9.23,0,0,1,4.95,1.4l-1.17,2.26a7.55,7.55,0,0,0-3.65-1.17c-1.17,0-1.88.49-1.88,1.35,0,1.12,1.83,1.55,2.82,1.9,2,.71,4.11,1.55,4.11,4.07"/></g><g id="g422"><path id="path424" class="cls-2" d="M162.11,28.72H159V21.59c0-2.22-.38-3.81-2.61-3.81-2.67,0-2.87,2.47-2.87,4.19v6.75h-3.07V21.59c0-2.22-.46-3.81-2.69-3.81-2.42,0-2.8,2.15-2.8,3.81v7.13h-3.07V15.31h2.92v1.63A4.47,4.47,0,0,1,148.65,15a4.08,4.08,0,0,1,4,2.23A5.36,5.36,0,0,1,157.11,15a4.91,4.91,0,0,1,3.7,1.32c1.32,1.32,1.3,3.46,1.3,4.24Z"/></g><g id="g426"><path id="path428" class="cls-2" d="M112.55,37.79a2,2,0,1,1-4.08.12V35.27h1.1v2.67c0,.73.34,1.09.94,1.09a.9.9,0,0,0,.94-1.06v-2.7h1.1Z"/></g><g id="g430"><path id="path432" class="cls-2" d="M118.14,39.91h-.86l-2.17-2.86v2.86h-1V35.27h1l2.12,2.79V35.27h1Z"/></g><path id="path434" class="cls-2" d="M120.84,39.91h-1.1V35.27h1.1Z"/><g id="g436"><path id="path438" class="cls-2" d="M126.61,35.27l-1.83,4.64h-1L122,35.27h1.2l1.16,3.18,1.17-3.18Z"/></g><g id="g440"><path id="path442" class="cls-2" d="M131.13,39.91h-3.4V35.27h3.35v.88h-2.26v1h2V38h-2v1h2.31Z"/></g><g id="g444"><path id="path446" class="cls-2" d="M135.29,36.79c0-.61-.57-.66-1-.66h-.58v1.33h.53c.43,0,1,0,1-.67m1.38,3.12h-1.24l-1.08-1.64h-.63v1.64h-1.09V35.27h1.79a2.09,2.09,0,0,1,1.48.42,1.44,1.44,0,0,1,.42,1.09,1.29,1.29,0,0,1-.91,1.3Z"/></g><g id="g448"><path id="path450" class="cls-2" d="M141.1,38.55c0,1-.72,1.45-1.72,1.45a3.13,3.13,0,0,1-1.85-.53l.43-.77a3.15,3.15,0,0,0,1.42.41c.5,0,.68-.2.68-.49s-.51-.47-.88-.59c-.62-.19-1.53-.47-1.53-1.47,0-.84.68-1.37,1.71-1.37a3.1,3.1,0,0,1,1.61.44l-.37.79a2.88,2.88,0,0,0-1.26-.34c-.45,0-.65.15-.65.45s.44.45,1,.6c.7.21,1.44.49,1.44,1.42"/></g><path id="path452" class="cls-2" d="M143.6,39.91h-1.1V35.27h1.1Z"/><g id="g454"><path id="path456" class="cls-2" d="M148.74,36.15H147.3v3.76h-1.11V36.15h-1.44v-.88h4Z"/></g><g id="g458"><path id="path460" class="cls-2" d="M154.11,35.27l-1.73,2.8v1.84h-1.1V38.07l-1.75-2.8h1.29l1,1.76,1.1-1.76Z"/></g><g id="g462"><path id="path464" class="cls-2" d="M161.74,37.6h0a1.34,1.34,0,0,0-1.35-1.43,1.31,1.31,0,0,0-1.33,1.42h0A1.34,1.34,0,0,0,160.4,39a1.32,1.32,0,0,0,1.34-1.42m1.13,0a2.41,2.41,0,0,1-2.48,2.4,2.38,2.38,0,0,1-2.46-2.39h0a2.47,2.47,0,0,1,4.94,0Z"/></g><g id="g466"><path id="path468" class="cls-2" d="M167.41,36.15h-2.17v1.06h1.87v.88h-1.87v1.82h-1.1V35.27h3.27Z"/></g><g id="g470"><path id="path472" class="cls-2" d="M174.85,39.91h-3.34V35.27h1.1V39h2.24Z"/></g><g id="g474"><path id="path476" class="cls-2" d="M179.46,37.6h0a1.34,1.34,0,0,0-1.35-1.43,1.31,1.31,0,0,0-1.33,1.42h0A1.34,1.34,0,0,0,178.12,39a1.32,1.32,0,0,0,1.34-1.42m1.13,0a2.41,2.41,0,0,1-2.48,2.4,2.38,2.38,0,0,1-2.46-2.39h0a2.47,2.47,0,0,1,4.94,0Z"/></g><g id="g478"><path id="path480" class="cls-2" d="M185.93,39.91h-.86l-2.17-2.86v2.86h-1V35.27h.94l2.12,2.79V35.27h1Z"/></g><g id="g482"><path id="path484" class="cls-2" d="M190.75,37.61a1.52,1.52,0,0,0-.39-1.08,1.46,1.46,0,0,0-1.1-.39h-.65V39h.6a1.51,1.51,0,0,0,1.16-.38,1.44,1.44,0,0,0,.38-1m1.15,0a2.29,2.29,0,0,1-.63,1.63,2.75,2.75,0,0,1-2.12.69h-1.63V35.27h1.91a2.47,2.47,0,0,1,1.81.66,2.3,2.3,0,0,1,.66,1.66"/></g><g id="g486"><path id="path488" class="cls-2" d="M196.75,37.6h0a1.35,1.35,0,0,0-1.35-1.43,1.31,1.31,0,0,0-1.33,1.42h0A1.34,1.34,0,0,0,195.41,39a1.32,1.32,0,0,0,1.34-1.42m1.12,0a2.47,2.47,0,0,1-4.93,0h0a2.47,2.47,0,0,1,4.93,0Z"/></g><g id="g490"><path id="path492" class="cls-2" d="M203.22,39.91h-.87l-2.17-2.86v2.86h-1V35.27h.94l2.12,2.79V35.27h1Z"/></g></g></g></g></svg>