<svg id="Layer_1" data-name="Layer 1" xmlns="http://www.w3.org/2000/svg" viewBox="0 0 278 50"><defs><style>.cls-1{fill:none;}.cls-2{fill:#e41f2f;}</style></defs><title>story-logo-content-code</title><rect class="cls-1" width="278" height="50"/><g id="NEW_VERSION_60" data-name="NEW VERSION 60"><path class="cls-2" d="M238.77,20.53a3.22,3.22,0,0,0-3.23,3.26h6.32a3.21,3.21,0,0,0-3.09-3.26m-3.23,5c0,1.92,1.05,3.63,3.31,3.63a2.86,2.86,0,0,0,3-2.05h2.56a5.38,5.38,0,0,1-5.56,4.19c-3.85,0-6-2.69-6-6.46,0-3.5,2.28-6.49,5.93-6.49,3.88,0,6.25,3.49,5.8,7.18Z"/><path class="cls-2" d="M227.87,24.86c0-2.71-1.3-4.33-3.4-4.33-2.54,0-3.44,2.26-3.44,4.47s1.05,4.21,3.4,4.21,3.44-2.21,3.44-4.35m2.61-10.81V31h-2.56V29.35h0a4.05,4.05,0,0,1-3.79,2c-3.88,0-5.75-2.88-5.75-6.56,0-4.44,2.63-6.39,5.31-6.39a4.74,4.74,0,0,1,4.09,1.92h0V14.05Z"/><path class="cls-2" d="M210.46,29.21c2.42,0,3.49-2.21,3.49-4.35s-1.07-4.33-3.49-4.33S207,22.74,207,24.86s1.07,4.35,3.49,4.35m6.2-4.35c0,3.78-2.26,6.49-6.2,6.49s-6.19-2.71-6.19-6.49,2.25-6.46,6.19-6.46,6.2,2.71,6.2,6.46"/><path class="cls-2" d="M197.09,18.4c2.85,0,5.27,1.43,5.54,4.44h-2.71a2.61,2.61,0,0,0-2.81-2.31c-1.41,0-3.37.75-3.37,4.47,0,2.05.9,4.21,3.25,4.21a2.93,2.93,0,0,0,2.93-2.81h2.71c-.51,3.19-2.48,5-5.64,5-3.85,0-6-2.74-6-6.35s2-6.6,6.06-6.6"/><path class="cls-2" d="M177.47,24.89c0-3.47,1.77-6.49,5.5-6.49a4.37,4.37,0,0,1,4.26,2.68h0v-7h1.5V31H187.4V28.68h-.06A4.84,4.84,0,0,1,183,31.37c-3.73,0-5.5-3-5.5-6.48m1.49,0c0,2.54,1.16,5.22,4,5.22,3.19,0,4.3-2.68,4.3-5.22s-1.11-5.23-4.3-5.23c-2.85,0-4,2.68-4,5.23"/><path class="cls-2" d="M170.67,18.4c3.45,0,4.49,1.8,4.49,4.73V31h-1.5V23.36c0-2.11-.69-3.7-3.11-3.7s-3.8,1.8-3.84,4.2V31h-1.5V18.75h1.5v2.12h0a4.17,4.17,0,0,1,3.92-2.47"/><path class="cls-2" d="M156.47,30.11c2.27,0,4.29-1.45,4.27-3.85v-2h-.05c-.18.36-.85.48-1.25.55-2.54.45-5.7.42-5.7,2.82a2.54,2.54,0,0,0,2.73,2.43m-.12,1.26c-2.26,0-4.11-1.12-4.11-3.59,0-3.44,3.34-3.56,6.58-3.94,1.24-.15,1.92-.31,1.92-1.66,0-2-1.45-2.52-3.21-2.52s-3.23.85-3.27,2.85h-1.5c.14-2.88,2.16-4.11,5-4.11,2.16,0,4.51.67,4.51,3.94v6.51a.79.79,0,0,0,.88.9,1.12,1.12,0,0,0,.47-.1v1.27a4.16,4.16,0,0,1-1,.09c-1.52,0-1.76-.85-1.76-2.13h0a4.69,4.69,0,0,1-4.47,2.49"/><path class="cls-2" d="M151,28.89V31c-.59.05-1.17.14-1.76.14-2.82,0-3.35-1.09-3.4-3.14V20.75h-2v-2h2V15.05h2.71v3.68H151v2h-2.45v6.56c0,1.12.09,1.68,1.31,1.68a4.4,4.4,0,0,0,1.14-.1"/><path class="cls-2" d="M137.8,18.4c2.66,0,4.35,1.43,4.35,4.18V31h-2.71V23.29c-.06-1.92-.81-2.76-2.4-2.76a3,3,0,0,0-3,3.24V31h-2.7V18.73h2.56v1.8l.05,0a4.41,4.41,0,0,1,3.83-2.18"/><path class="cls-2" d="M126.58,23.79a3.16,3.16,0,1,0-6.32,0Zm-3.09-5.39c3.88,0,6.25,3.49,5.8,7.18h-9c0,1.92,1,3.63,3.31,3.63a2.84,2.84,0,0,0,3-2.05h2.57a5.38,5.38,0,0,1-5.56,4.19c-3.85,0-6-2.69-6-6.46,0-3.5,2.29-6.49,5.94-6.49"/><path class="cls-2" d="M113.76,27.31c0,1.12.1,1.68,1.3,1.68a4.4,4.4,0,0,0,1.14-.1V31c-.59.05-1.16.14-1.75.14-2.83,0-3.36-1.09-3.4-3.14V20.75h-2v-2h2V15.05h2.71v3.68h2.44v2h-2.44Z"/><path class="cls-2" d="M103,18.4c2.67,0,4.34,1.43,4.34,4.18V31h-2.7V23.29c-.05-1.92-.81-2.76-2.4-2.76a3,3,0,0,0-3,3.24V31H96.61V18.73h2.56v1.8l0,0A4.39,4.39,0,0,1,103,18.4"/><path class="cls-2" d="M88.15,29.21c2.42,0,3.49-2.21,3.49-4.35s-1.07-4.33-3.49-4.33-3.5,2.21-3.5,4.33,1.08,4.35,3.5,4.35m6.2-4.35c0,3.78-2.25,6.49-6.2,6.49S82,28.64,82,24.86s2.25-6.46,6.2-6.46,6.2,2.71,6.2,6.46"/><path class="cls-2" d="M80.31,26.4c-.5,3.19-2.47,5-5.63,5-3.85,0-6-2.74-6-6.35s2-6.6,6.06-6.6c2.85,0,5.27,1.43,5.53,4.44H77.6a2.6,2.6,0,0,0-2.8-2.31c-1.4,0-3.38.75-3.38,4.47,0,2.05.91,4.21,3.26,4.21A2.92,2.92,0,0,0,77.6,26.4Z"/><path class="cls-2" d="M63.36,25a15,15,0,1,1-15-15,15,15,0,0,1,15,15m-6.14-2.45a3.57,3.57,0,0,0-.11-.64h0a9.28,9.28,0,1,0,0,6.21h0a2.76,2.76,0,0,0,.11-.66c0-.63-.25-1.15-.62-1.15a.58.58,0,0,0-.47.34v0a3.89,3.89,0,1,1,0-3.36h0c.12.21.3.39.48.39.37,0,.62-.52.62-1.15"/></g></svg>