<svg id="Layer_1" data-name="Layer 1" xmlns="http://www.w3.org/2000/svg" viewBox="0 0 278 50"><defs><style>.cls-1{fill:none;}.cls-2{fill:#0f8acb;fill-rule:evenodd;}</style></defs><title>story-logo-huddle</title><rect class="cls-1" width="278" height="50"/><path class="cls-2" d="M94.75,19.21c5.06,0,8,3.91,8,9.35V37.1a2.71,2.71,0,1,1-5.42,0V28.84c0-2.64-1.31-4.73-4.11-4.73-3,0-4.24,2.32-4.24,4.73V37.1a2.71,2.71,0,1,1-5.42,0V12.72a2.71,2.71,0,1,1,5.42,0v9.81a6.25,6.25,0,0,1,5.82-3.32"/><path class="cls-2" d="M103.86,22.12a2.71,2.71,0,1,1,5.42,0V31a4.15,4.15,0,1,0,8.3,0V22.12a2.71,2.71,0,1,1,5.42,0v8.49a9.57,9.57,0,0,1-19.14,0Z"/><path class="cls-2" d="M169.69,12.72a2.71,2.71,0,1,1,5.42,0V37.1a2.71,2.71,0,1,1-5.42,0Z"/><path class="cls-2" d="M180.63,27.52a4.3,4.3,0,0,1,4.47-3.95c2.39,0,3.84,1.86,4.24,3.95Zm13.86,2.09c0-5.95-3.75-10.4-9.39-10.4a10.06,10.06,0,0,0-7.56,3.2V37a10.07,10.07,0,0,0,7.65,3,11.6,11.6,0,0,0,6.59-1.81,3.45,3.45,0,0,0,1.95-2.73,2,2,0,0,0-2.17-2,3.09,3.09,0,0,0-2,.91,6.59,6.59,0,0,1-4.16,1.32,4.54,4.54,0,0,1-4.87-4.31h12a1.74,1.74,0,0,0,1.94-1.77"/><path class="cls-2" d="M129.69,29.61c0-3.18,1.8-5.77,4.92-5.77s4.83,2.73,4.83,5.77-1.71,5.76-4.83,5.76-4.92-2.59-4.92-5.76M142.15,10a2.72,2.72,0,0,0-2.71,2.72V21a8.55,8.55,0,0,0-6-1.81c-6,0-9.17,5-9.17,10.4S127.43,40,133.44,40h.25s3.9.11,6-2.19a2.56,2.56,0,0,0,2.52,2,2.6,2.6,0,0,0,2.62-2.72V12.72A2.72,2.72,0,0,0,142.15,10"/><path class="cls-2" d="M151.93,29.61c0-3.18,1.81-5.77,4.92-5.77s4.84,2.73,4.84,5.77-1.72,5.76-4.84,5.76-4.92-2.59-4.92-5.76M164.4,10a2.71,2.71,0,0,0-2.71,2.72V21a8.59,8.59,0,0,0-6-1.81c-6,0-9.17,5-9.17,10.4S149.67,40,155.68,40h.25s3.9.11,6-2.19a2.61,2.61,0,0,0,5.14-.71V12.72A2.71,2.71,0,0,0,164.4,10"/></svg>