<?xml version="1.0" encoding="utf-8"?>
<!-- Generator: Adobe Illustrator 24.2.3, SVG Export Plug-In . SVG Version: 6.00 Build 0)  -->
<svg version="1.1" id="Layer_1" xmlns="http://www.w3.org/2000/svg" xmlns:xlink="http://www.w3.org/1999/xlink" x="0px" y="0px"
	 viewBox="0 0 278 50" style="enable-background:new 0 0 278 50;" xml:space="preserve">
<style type="text/css">
	.st0{fill:none;}
	.st1{fill:#009ADE;}
</style>
<rect class="st0" width="278" height="50"/>
<g>
	<path class="st1" d="M59.9,33.3L59.9,33.3c-2,1.9-4,3.2-7.1,3.2c-4.8,0-8.4-3.9-8.4-9c0-5.1,3.6-8.9,8.4-8.9c2.6,0,4.6,0.9,6.9,3
		l0.5,0.4l2.7-2.9l-0.5-0.4c-2.1-2-4.8-3.9-9.5-3.9c-3.4,0-6.6,1.3-8.9,3.7c-2.3,2.4-3.5,5.5-3.5,9c0,7.2,5.3,12.6,12.3,12.6
		c4.9,0,7.7-2.2,9.8-4.3l0.4-0.5l-2.6-2.6L59.9,33.3z"/>
	<path class="st1" d="M73.5,20.9c-5.4,0-9.6,4.2-9.6,9.6c0,5.4,4.2,9.6,9.5,9.6c5.4,0,9.6-4.2,9.6-9.6
		C83.1,25.1,78.9,20.9,73.5,20.9z M79.2,30.6c0,3.4-2.4,6-5.7,6c-3.2,0-5.7-2.7-5.7-6.1c0-3.5,2.4-6,5.7-6
		C76.7,24.5,79.2,27.2,79.2,30.6z"/>
	<path class="st1" d="M94.2,20.9c-2.1,0-3.9,0.7-5.3,2.1v-1.8h-3.8v18.5h3.8V29.3c0-2.8,1.9-4.8,4.5-4.8c2.6,0,4.1,1.7,4.1,4.6v10.7
		h3.8V28.5C101.4,23.9,98.6,20.9,94.2,20.9z"/>
	<path class="st1" d="M117.7,34.2c-1.5,1.6-3,2.4-4.8,2.4c-3.2,0-5.7-2.7-5.7-6.1c0-3.4,2.4-6.1,5.5-6.1c2.2,0,3.6,1.2,4.8,2.4
		l0.5,0.5l2.6-2.7l-0.4-0.4c-1.4-1.5-3.6-3.3-7.3-3.3c-2.6,0-5,1-6.7,2.9c-1.7,1.8-2.7,4.2-2.7,6.8c0,2.5,1,4.9,2.7,6.7
		c1.8,1.8,4.2,2.8,6.7,2.8c3.8,0,6-1.9,7.5-3.5l0.4-0.5l-2.5-2.4L117.7,34.2z"/>
	<rect x="122.8" y="21.3" class="st1" width="3.8" height="18.5"/>
	<rect x="122.8" y="16.4" class="st1" width="3.8" height="3.2"/>
	<path class="st1" d="M133.1,24.1v-2.8h-3.8v18.5h3.8v-7.5c0-4.5,2.3-7.2,6-7.2h0.8v-4l-0.6,0C136.9,20.9,134.8,22,133.1,24.1z"/>
	<path class="st1" d="M145.8,24.1v-2.8H142v18.5h3.8v-7.5c0-4.5,2.3-7.2,6-7.2h0.8v-4l-0.6,0C149.6,20.9,147.5,22,145.8,24.1z"/>
	<path class="st1" d="M167.1,31.8c0,2.8-1.9,4.8-4.5,4.8c-2.6,0-4.1-1.7-4.1-4.6V21.3h-3.8v11.3c0,4.6,2.8,7.5,7.2,7.5
		c2.1,0,3.9-0.7,5.3-2.1v1.8h3.8V21.3h-3.8V31.8z"/>
	<path class="st1" d="M181.7,28.7L181.7,28.7c-2.1-0.6-4-1.2-4-2.4v-0.1c0-1.1,1.1-1.9,2.7-1.9c1.5,0,3.2,0.6,4.7,1.6l0.5,0.4l1.8-3
		L187,23c-1.9-1.3-4.3-2-6.5-2c-3.8,0-6.5,2.3-6.5,5.6v0.1c0,3.7,3.6,4.7,6.1,5.5c2.2,0.6,3.8,1.2,3.8,2.4v0.1
		c0,1.3-1.2,2.1-2.9,2.1c-1.8,0-3.8-0.7-5.6-2.1l-0.5-0.4l-2,2.8l0.5,0.4c2,1.6,4.9,2.7,7.5,2.7c4,0,6.8-2.3,6.8-5.8v-0.1
		C187.6,30.5,184.1,29.4,181.7,28.7z"/>
	<path class="st1" d="M234.8,23.8c-2.1-2.1-5.2-3.1-8.2-2.7c0.1-0.5,0.1-1,0.1-1.6c0-5.3-4.3-9.7-9.7-9.7c-5.3,0-9.7,4.3-9.7,9.7
		c0,0.5,0,1,0.1,1.6c-3-0.4-6,0.6-8.2,2.7c-1.8,1.8-2.8,4.2-2.8,6.8c0,2.6,1,5,2.8,6.8c3.7,3.7,9.9,3.7,13.6,0l10.9-10.9
		c2.3-2.3,6-2.3,8.3,0c1.1,1.1,1.7,2.6,1.7,4.1c0,1.6-0.6,3-1.7,4.1c-2.3,2.3-6,2.3-8.3,0l-1.9-1.9l-2.7,2.7l1.9,1.9
		c1.9,1.9,4.3,2.8,6.8,2.8c2.5,0,4.9-0.9,6.8-2.8c1.8-1.8,2.8-4.2,2.8-6.8C237.6,28,236.6,25.6,234.8,23.8z M211.1,19.5
		c0-3.3,2.7-6,6-6s6,2.7,6,6c0,1.6-0.6,3-1.7,4.1c-0.1,0.1-0.2,0.2-0.3,0.3l-10.8,10.8c-2.3,2.3-6,2.3-8.3,0
		c-1.1-1.1-1.7-2.6-1.7-4.1c0-1.6,0.6-3,1.7-4.1c1.1-1.1,2.6-1.7,4.1-1.7c1.5,0,3,0.6,4.1,1.7l0,0l1.9,1.9l2.7-2.7l-2.2-2.2
		C211.7,22.4,211.1,21,211.1,19.5z"/>
</g>
</svg>
