<svg id="Layer_1" data-name="Layer 1" xmlns="http://www.w3.org/2000/svg" viewBox="0 0 278 50"><defs><style>.cls-1{fill:none;}.cls-2{fill:#ee7623;}.cls-3{fill:#231f20;}</style></defs><title>story-logo-datasift</title><rect class="cls-1" width="278" height="50"/><path class="cls-2" d="M111.88,19.77,112,19h.24l.13.77,1.26,9.44h-3ZM109.45,10l-4.53,30h4.27l.82-6.11h4.23l.81,6.11h4.27L114.8,10Z"/><polygon class="cls-2" points="118.85 10 118.85 14.56 123 14.56 123 39.95 127.39 39.95 127.39 14.56 131.54 14.56 131.54 10 118.85 10"/><path class="cls-2" d="M138,19.77l.12-.77h.24l.13.77,1.26,9.44h-3ZM135.59,10l-4.52,30h4.27l.82-6.11h4.23L141.2,40h4.27L141,10Z"/><path class="cls-3" d="M153.23,10.06c5.2-.12,6,4.5,6,7.77l-4.24.4c0-1.95-.28-4.22-1.72-4.22-1.12,0-1.48,1.23-1.48,2.91,0,2,1.72,4.22,3.4,6.65,2,3,4,5.91,4,9,0,3.91-1.28,7.38-6,7.38-5.56,0-6.28-4.19-6.28-8.53l4.24-.4c0,2.43.24,5,2,5,1.28,0,1.76-1.39,1.76-3.23s-1.84-4.3-3.48-6.77c-2-3-4-6-4-9.13s1.56-6.78,5.64-6.86"/><rect class="cls-3" x="161.72" y="10.06" width="4.39" height="29.94"/><polygon class="cls-3" points="168.57 10.04 168.57 40 172.99 40 172.98 26.93 177.05 26.93 177.05 22.41 172.98 22.41 172.98 14.56 178.79 14.56 178.8 10.04 168.57 10.04"/><polygon class="cls-3" points="180.8 10.06 180.81 14.59 184.42 14.57 184.41 40 188.82 40 188.81 14.57 192.96 14.57 192.96 10.06 180.8 10.06"/><path class="cls-2" d="M94.58,10.06H85v4.12h6.08v4.47H85v4.13h6.08v4.48H85v4.13h6.08v4.47H85V40h9.54c8.13,0,8.74-3.26,8.74-15s-.61-14.94-8.74-15m.93,25.53V14.45c3.1,0,3.3.78,3.26,10.55s-.16,10.59-3.26,10.59"/></svg>