<svg width="278" height="50" viewBox="0 0 278 50" fill="none" xmlns="http://www.w3.org/2000/svg">
<g clip-path="url(#clip0_1532_259)">
<path d="M65.5587 24C69.4348 24 72.577 20.866 72.577 17C72.577 13.134 69.4348 10 65.5587 10C61.6827 10 58.5405 13.134 58.5405 17C58.5405 20.866 61.6827 24 65.5587 24Z" fill="black"/>
<path d="M65.5587 40C69.4348 40 72.577 36.866 72.577 33C72.577 29.134 69.4348 26 65.5587 26C61.6827 26 58.5405 29.134 58.5405 33C58.5405 36.866 61.6827 40 65.5587 40Z" fill="black"/>
<path d="M50.0183 40C53.8943 40 57.0365 36.866 57.0365 33C57.0365 29.134 53.8943 26 50.0183 26C46.1422 26 43 29.134 43 33C43 36.866 46.1422 40 50.0183 40Z" fill="black"/>
<path d="M50.0183 24C53.8943 24 57.0365 20.866 57.0365 17C57.0365 13.134 53.8943 10 50.0183 10C46.1422 10 43 13.134 43 17C43 20.866 46.1422 24 50.0183 24Z" fill="#04D2FF"/>
<path fill-rule="evenodd" clip-rule="evenodd" d="M86.1123 11.5V38.5H91.5394V27.9711H97.3658C100.186 27.9711 102.44 27.2261 104.13 25.733C105.821 24.243 106.666 22.2743 106.666 19.755C106.666 17.2357 105.821 15.2311 104.13 13.738C102.44 12.245 100.186 11.5 97.3658 11.5H86.1123ZM96.8891 23.4597H91.5394V23.4567V16.0125H96.8891C98.2451 16.0125 99.3101 16.3416 100.081 16.9969C100.852 17.6521 101.239 18.5976 101.239 19.7555C101.239 20.9135 100.852 21.82 100.081 22.4753C99.3101 23.1305 98.2451 23.4597 96.8891 23.4597Z" fill="black"/>
<path d="M121.377 23.5788C120.645 23.2667 119.779 23.1091 118.776 23.1091C117.203 23.1091 115.897 23.7788 114.854 25.1213C113.81 26.4636 113.29 28.5151 113.29 31.2727V38.5H108.17V18.8121H113.29V22.4061C113.804 21.2879 114.652 20.3545 115.831 19.6121C117.011 18.8697 118.221 18.5 119.469 18.5C120.308 18.5 121.055 18.603 121.705 18.8121L121.38 23.5788H121.377Z" fill="black"/>
<path fill-rule="evenodd" clip-rule="evenodd" d="M132.734 38.5C135.804 38.5 138.325 37.5572 140.299 35.6715C142.274 33.7887 143.261 31.3957 143.261 28.4985C143.261 25.6013 142.274 23.2114 140.299 21.3256C138.322 19.4429 135.804 18.5 132.734 18.5C129.663 18.5 127.143 19.4399 125.168 21.3256C123.193 23.2084 122.206 25.6013 122.206 28.4985C122.206 31.3957 123.193 33.7857 125.168 35.6715C127.143 37.5572 129.663 38.5 132.734 38.5ZM132.734 34.3049C131.107 34.3049 129.791 33.7738 128.791 32.7086V32.7115C127.791 31.6463 127.291 30.244 127.291 28.4985C127.291 26.7529 127.791 25.3507 128.791 24.2854C129.791 23.2202 131.107 22.6891 132.734 22.6891C134.361 22.6891 135.677 23.2262 136.677 24.3033C137.676 25.3805 138.176 26.7769 138.176 28.4955C138.176 30.2142 137.676 31.6105 136.677 32.6877C135.677 33.7678 134.361 34.3049 132.734 34.3049Z" fill="black"/>
<path d="M162.311 38.5H156.799L152.806 32.6203L148.773 38.5H143.261L150.052 28.6345L143.459 19H148.893L152.806 24.6486L156.682 19H162.113L155.523 28.6345L162.311 38.5Z" fill="black"/>
<path d="M168.828 19H163.815V38.5H168.828V19Z" fill="black"/>
<path d="M172.838 38.497V18.8121H177.891V21.8207C179.173 19.6089 181.114 18.5 183.705 18.5C186.941 18.5 189.041 19.7362 190.003 22.2116C190.591 21.1451 191.474 20.2573 192.65 19.5544C193.826 18.8515 195.177 18.5 196.701 18.5C198.867 18.5 200.612 19.1181 201.934 20.3543C203.257 21.5905 203.919 23.1872 203.919 25.1383V38.497H198.867V26.5079C198.867 25.3111 198.546 24.3719 197.905 23.6961C197.264 23.0205 196.353 22.6812 195.177 22.6812C193.839 22.6812 192.79 23.2024 192.028 24.2447C191.266 25.2869 190.886 26.6927 190.886 28.4622V38.5H185.833V26.5079C185.833 25.3111 185.519 24.3719 184.891 23.6961C184.263 23.0205 183.373 22.6812 182.225 22.6812C180.862 22.6812 179.798 23.2085 179.035 24.2628C178.273 25.3172 177.894 26.7291 177.894 28.5016V38.5H172.841L172.838 38.497Z" fill="black"/>
<path d="M212.441 19H207.428V38.5H212.441V19Z" fill="black"/>
<path fill-rule="evenodd" clip-rule="evenodd" d="M234.919 29.7739C234.972 29.2607 235 28.6194 235 27.8496L234.997 27.8437C234.997 25.3825 234.11 23.2107 232.341 21.3252C230.573 19.4427 228.038 18.5 224.893 18.5C221.748 18.5 219.307 19.4875 217.563 21.4624C215.818 23.4373 214.948 25.8061 214.948 28.5C214.948 31.1939 215.858 33.5328 217.683 35.5197C219.505 37.5066 222.003 38.5 225.172 38.5C227.543 38.5 229.553 37.9869 231.205 36.9607C232.856 35.9343 233.959 34.5113 234.519 32.6915L229.807 31.4624C229.541 32.4111 229.009 33.1421 228.208 33.6551C227.409 34.1683 226.424 34.4249 225.253 34.4249C223.815 34.4249 222.632 34.0161 221.699 33.1957C220.767 32.3753 220.195 31.2357 219.982 29.7739H234.919ZM229.609 26.2357H220.103C220.369 24.926 220.921 23.9266 221.761 23.2345C222.601 22.5423 223.645 22.1963 224.897 22.1963C226.307 22.1963 227.413 22.5692 228.212 23.3121C229.011 24.0578 229.475 25.0305 229.609 26.2357Z" fill="black"/>
</g>
<defs>
<clipPath id="clip0_1532_259">
<rect width="192" height="30" fill="white" transform="translate(43 10)"/>
</clipPath>
</defs>
</svg>
